<svg xmlns="http://www.w3.org/2000/svg" enable-background="new 0 0 491.8 503.4" viewBox="0 0 491.8 503.4"><path fill="#040408" d="M479.8,408.9c-0.7-4.9-1.8-9.8-3.2-14.6c-0.7-2.4-0.6-5.1,0.4-7.4c3.3-8.3,3.6-16.9,1.9-25.5
			c-2.1-11.1-8.3-21-17.4-27.8c-8.9-7-18.6-13-28.8-18c-5.4-2.6-10.9-5.2-16.3-7.9c-2.5-1.2-4.9-2.8-7-4.6l3.3-2.6
			c1-0.8,2-1.7,2.8-2.7c1.5-1.9,1.2-3.5-0.9-4.6c-0.6-0.3-1.2-0.5-1.8-0.7c-2.2-0.6-4.5-0.9-6.8-0.9c-4-0.1-8,0.4-12,0.7
			c-0.9,0.1-1.8,0.1-2.7,0.1c-1.9-0.1-2.2-0.5-1.5-2.2c0.6-1.4,1.4-2.8,2.1-4.2s1.6-2.7,0.5-4.1s-2.6-0.9-3.9-0.7
			c-3,0.5-5.9,1.4-8.7,2.5c-3,1-3,1-4.1-2c-0.2-0.7-0.4-1.4-0.6-2.1c-0.8-3.4-0.9-6.8-0.5-10.2c0.7-6.8,2.7-13.1,7.3-18.3
			c0.9-0.9,1.7-1.9,2.5-3c2-2.9,1.3-5.2-1.9-6.7c-0.6-0.3-1.2-0.5-1.8-0.6c-2.4-0.6-4.8-1-7.3-1c-1.4,0-2.8-0.1-4.2-0.2
			c-2-0.3-2.1-0.6-1.1-2.3c0.8-1.3,1.8-2.5,2.6-3.8c1.5-2.5,0.9-4.1-1.9-5.1c-1.3-0.4-2.7-0.5-4.1-0.4c-4.8,0.3-9.2,1.9-13.8,3.2
			c-1.8,0.6-3.6,1-5.5,1.4c-0.9,0.1-1.5,0-1.8-1.1c-0.6-1.9-1.3-2.3-3.3-2c-1.3,0.3-2.5,0.7-3.6,1.4c-2.2,1.3-4.2,2.8-6.1,4.4
			c-1.8,1.6-3.6,3-5.6,4.4c-1.3,0.8-1.4,0.8-2-0.7c-0.7-1.8-1.6-2.2-3.2-1.3c-4.5,2.4-7.9,6.6-9.4,11.5c-1,3.3,0.7,5.7,4,6.3
			c1.4,0.3,2.8,0.3,4.1,0.5c1.2,0.2,1.4,0.5,0.8,1.6c-0.8,1.5-1.9,2.9-2.7,4.4c-1.4,2.3-1.2,3.6,1,5.2c1.4,1,2.9,1.8,4.5,2.6
			c4.1,2.1,8.1,4.6,11.9,7.4c1.9,1.4,3.6,3,5.1,4.9c3.8,5,4.1,10.1,0.6,15.4c-1.4,2.2-3,4.3-4.8,6.2l-17.3,19.9
			c-0.9-0.7-1.6-1.6-1.9-2.7c-1.9-4.4-2.9-9-2.9-13.8c-0.5-9.3,1.4-18.5,5.4-26.9c0.7-1.3,1.2-2.6,1.6-4c0.7-2.9-0.1-4.8-2.8-6
			c-1.5-0.7-3.1-1.1-4.6-1.6c-0.7-0.3-1.5-0.2-2-0.9l0.3-0.9c1.1-3.1,0.5-4.3-2.7-5.1c-2.9-0.8-5.9-0.8-8.7-0.1
			c-4.1,1-8.2,2.3-12.2,3.5c-2.5,0.7-4.9,1.6-7.4,2.1c-0.4-0.8,0-1.4,0.1-2c0.4-2.4-0.6-3.4-3-3c-1.3,0.3-2.5,0.8-3.6,1.5
			c-2.1,1.3-4,2.9-5.7,4.6c-0.6,0.6-1.3,1.2-2,1.8c-0.9-2.9-1.8-3.2-4.1-1.5c-0.5,0.3-0.9,0.7-1.3,1.1c-4.1,3.9-7.4,8.6-9.5,13.8
			c-0.4,1.1-0.7,2.2-0.9,3.3c-0.3,2,0.6,3.1,2.5,3.5c1,0.2,2.1,0.3,3.1,0.4c2,0.3,2.3,0.6,1.6,2.5c-0.4,1.1-0.8,2.1-1.2,3.2
			c-1.1,3.4-0.4,5,3.1,5.7c4,0.8,7,2.9,9.8,5.7c4.3,4.6,8.3,9.4,12,14.6c2.1,2.6,2.5,6.1,1.1,9.2c-1.8,4.1-4.2,7.9-7.3,11.3
			c-4.6,5.3-10.1,9.4-15.6,13.7c-12.6,9.7-23.2,21.7-31.1,35.5c-6.5,11.5-10.3,23.6-9.5,36.9c0.1,0.3,0.2,0.6,0.3,0.9
			c1.8,12.6,7.6,24.2,16.5,33.2c5.9,6,13,10.1,20.5,13.6c5.7,2.6,12,4,18.3,3.9l10-0.1c7.2-0.2,14.3-1.9,20.8-4.9
			c2.4-1.1,4.8-2,7.3-2.9c1.2-0.6,2.6-0.2,3.3,0.9c6.3,6.8,14.4,11.8,23.4,14.2c14.5,4.1,29.3,5,44.2,4.4c9.9-0.4,19.7-1.3,29.5-2.8
			c13.2-1.9,26.3-4.3,38.9-8.7c4.3-1.3,8.5-3,12.4-5.1c6-3.4,10.8-8,13.3-14.5c1.2-3.3,2.1-6.7,2.7-10.2c0.5-2.6,0.1-5.2,0.8-7.8
			c0.1-6.3,0.2-12.6,0.2-18.9C480.8,419,480.5,413.9,479.8,408.9z M312,470.8c-3,0.9-5.9,2-8.7,3.3c-7.5,3.2-15.5,4.7-23.6,4.6
			c-5.5,0-11,0.3-16.3-1.4c-23.3-7.5-38.4-22.5-43-47c-1.4-7.4,0-14.6,2.1-21.8c2.4-8.4,6.6-15.9,11.4-23.2
			c7.1-10.8,16.1-19.7,26.1-27.7c5.2-4.2,10.6-8.1,15.2-13.1c2.6-2.7,4.8-5.8,6.6-9.1c0.3-0.9,1.3-1.5,2.3-1.4
			c9,0.2,18-1.1,26.5-3.8c2.4-0.8,4.7-1.8,6.9-3.2c0.8-0.5,1.5-0.6,2.1,0.2c0.1,0.1,0.1,0.1,0.2,0.1c10.5,9.3,23.1,13.9,36.6,16.6
			c3.1,0.5,6.1,1.1,9.1,1.9c0.4,0.1,0.8,0.2,1,0.6c0.1,0.6-0.3,0.9-0.6,1.3c-5.8,8.3-12.5,15.9-20.1,22.7
			c-7.2,6.4-13.9,13.3-20.1,20.7c-3,3.6-6.3,6.9-8.9,10.8c-0.6,0.7-1.1,1.4-1.4,2.3c-0.2,0.3-2.7,3.6-2.8,4.1
			c-3.7,6.4-6.4,13.2-8.2,20.4c-2.5,10.1-2.2,20,1.7,29.8c0.8,2.1,1.8,4.2,3,6.2c1.1,1.9,2.3,3.7,3.6,5.5
			C312.6,470.4,312.3,470.7,312,470.8z M479.1,435.7c-0.2,5.6-0.3,11.3-1.4,16.8c-0.6,3.7-1.8,7.3-3.6,10.6c-2.8,5-7.1,8.5-12,11.2
			c-2.2,1.1-4.4,2.1-6.7,2.9c-11,4-22.3,6.9-33.9,8.7c-11.8,2-23.6,3.3-35.5,4c-3.4,0.2-6.9,0.3-10,0.4c-12.4-0.2-24.3-1-36-4.3
			c-12.4-3.5-22.3-10.3-29.1-21.4c-5.9-9.6-8-21.2-5.8-32.3c2.4-12.8,8.1-24.1,16.4-34c4.1-4.9,8.4-9.6,12.6-14.3
			c3.9-4.4,8.2-8.5,12.6-12.3c7-6.2,13.2-13.2,18.5-20.8c1-1.7,2.9-2.6,4.8-2.3c5.1,0.3,10.3-0.6,15.3-1.4c1.9-0.3,3.8-0.8,5.7-1.3
			c4.5-1.2,8.9-2.8,12.6-5.8c0.8-0.7,1.9-0.9,2.9-0.4c10.3,4.5,20.8,8.2,30.9,13.1c11.5,5.5,20.9,13.6,28.8,23.5
			c3.2,3.9,5.6,8.3,7,13.1c2.2,6.9,3.8,13.9,4.8,21C479.2,418.7,479.5,427.2,479.1,435.7z"/><path fill="#e1f0ff" d="M175,423.7c0.4,0.5,1.1,0.8,1.8,0.6c1.9,0,3.7,0.3,5.5,0.9c5.9,1.4,11.8,2.9,17.8,4.3
			c6.1,1.3,12.4,1.1,18.3-0.7c1.1,0.2,0.9,1.2,1.1,1.9c1.9,11.9,7.5,22.9,15.9,31.5c4.4,4.5,9.7,7.9,15.2,11
			c8.2,4.5,17.4,6.8,26.8,6.5c8.8-0.1,17.5-0.7,25.6-4.4c2.9-1.4,5.9-2.6,8.9-3.6c1.5-0.4,3.1,0,4.1,1.2c10.1,11,23.4,15,37.6,16.9
			c8.8,1.3,17.7,1.8,26.6,1.4c24.8-1.3,49.3-4.1,73-12.2c6.2-2.1,12.2-4.7,17.1-9.4c4.1-3.9,6.4-8.9,7.7-14.3
			c0.9-3.3,1.4-6.7,1.5-10.2c0-0.9-0.2-2,1-2.5c0,0.4,0.1,0.8,0.1,1.2c0,1.6,0,2.3,0.5,2.8c2.2,1.9,4.2,4.1,5.9,6.5
			c4.6,7,7.9,14.3-1,32.2c-1.7,3.3-4.4,6-7.7,7.5c-5.9,2.8-12,5-18.4,6.5c-5.6,1.2-11.3,2.2-17,2.8c-11.9,1.5-23.8,0.9-35.7,0.8
			c-5.9,0-11.8-0.5-17.7-1s-11.6-0.9-17.3-1.5c-4-0.4-7.9-0.6-11.9-1.2c-1.9-0.3-3.9-0.3-5.8-0.5c-6.3-0.8-12.6-1.4-18.8-2.4
			c-8-1.2-16.1-2.4-24.3-2.2c-5.5,0-11.1-0.4-16.5-1.2c-8.1-1-16-2.5-24-4c-5.4-1-10.9-1.9-16.4-2.4c-2.8-0.3-5.6-0.9-8.5-0.6
			c-1.7,0.2-3.2-0.6-4.9-0.4c-5.4,0.5-10.9,0.3-16.4,0.9c-3.9,0.4-7.9,0.8-11.8,1.1c-4.4,0.4-8.7,1-13.1,1.3
			c-7.6,0.6-15,2.6-22.6,3.4c-4.5,0.5-9.1,0.8-13.6,1.2c-8,0.6-16,0.5-24,0.3c-3.5-0.1-7-0.3-10.4-0.8c-3.3-0.4-6.6-0.7-9.9-1.1
			c-6.4-0.8-12.9-1.8-19.2-3.2c-6.3-1.3-12.5-3-18.6-5.2c-6.5-2.4-12.7-5.2-18.1-9.5c-5.6-4.4-10.2-9.7-12.1-16.9
			c0-0.2-0.1-0.4-0.2-0.5c-1.6-3.2-2.4-6.7-2.2-10.3c0-3.3,1.1-6.5,3.2-9.1c5.5-7.4,12.9-11.9,22-14.1c6.3-1.5,12.6-1.4,18.9-1.2
			c1.6,0,3.2,0.4,4.8,0.4c0.7,0,1.1-0.3,1.2-1c2.5,0.8,2.8,3.3,3.9,5.1c1.2,1.7,1.5,3.8,0.7,5.8c-1.7,1.8-3.9,2-6.1,1.9
			c-4.2-0.3-8.3-0.8-12.4-1c-8.3-0.3-13.3,1-17.7,9.7c-2,4-3.1,8.3,0,12.5c0.3,0.6,0.5,1.2,0.6,1.9c0.1,0.2,0.1,0.5,0.2,0.7
			c0.2,0.5,0.1,1.3,0.8,1.4c0.9,0.1,0.8-0.8,1.1-1.4c0.1-0.4,0.3-0.7,0.7-1c1.2-0.1,2.4,0.2,3.4,0.9c3.7,1.9,7.7,2.8,11.6,4.2
			c0.3,0.2,0.5,0.4,0.6,0.7c0.7,1.8,1.7,1.6,2.7,0.3c1.5-0.4,3.1-0.5,4.6-0.3c4.2,0.1,8.3-0.2,12.4-1.2c4.6-0.8,8.6-3.7,10.6-7.9
			c1.7-3.5,3.2-7.1,4.4-10.8c5.4-4,7.1-10,8.9-16c0.3-0.9,0.1-2.3,1.7-2.3c3.4,0.8,6.8,0.3,10.2,0.4c1.6,0,1.4-1.9,2.6-2.3
			c1.4,1.1,0.7,2.5,0.6,3.8c-0.4,3.6-0.4,7.1,2.1,10.2c0.3,0.4,0.7,0.7,1.1,1c0.2,0.2,0.3,0.4,0.5,0.6c2,4.7,4.3,9.1,8.3,12.5
			c5,4.3,10.8,6,17.3,6.1c2.8,0,5.7-0.4,8.5,0.3c0.4,0.3,0.7,0.7,0.9,1.1c0.1,0.4,0.2,0.8,0.3,1.1c0.1,0.4,0.2,0.8,0.7,0.9
			s0.7-0.3,0.9-0.7c0.4-0.8,0.6-1.8,1.4-2.4c0.2-0.1,0.5-0.2,0.7-0.3c1.2-0.2,2.4-0.1,3.5,0.1c2.5,0.7,5.1,0.6,7.6,1.5
			c1.6,0.6,1.1,2.4,1.8,3.5c1.1-0.4,0.9-1.6,1.7-2.1c0.9-0.7,2.3-0.5,3.1-1.4c0.1-0.1,0.3-0.3,0.4-0.5s0.2-0.4,0.3-0.6
			c0.4-0.8,0.7-1.7,1-2.5c1.2-8.3-2.3-14.6-8.5-19.6c-5.7-4.5-12.3-6.2-19.5-5.7c-2.4,0.1-4.9,0.4-7.3-0.3
			C171.5,426.8,173.4,425.3,175,423.7z"/><path fill="#38a1fc" d="M138.6,80.9c1.1-0.8,1.9-1.8,2.4-3c4.1-7.5,7-15.5,8.7-23.8c0.1-0.3,0.2-0.6,0.4-0.9c1,0.8,0.8,1.9,0.7,2.9
			c-0.6,5.5-0.8,11.1-1.2,16.6c-0.4,3.9,0.2,7.8,1.8,11.4c-1-4.6-1.3-9.3-0.9-14c0.5-7.3,0.3-14.7,1.8-22c1.8-9.5,1.2-19.3-1.6-28.6
			c-0.3-0.9-0.8-1.8-0.1-2.6s1.9-0.2,2.8,0.1c6.3,1.9,9,4.3,11.9,10.6c0.5-0.2,0.3-0.7,0.3-1c0-0.9-0.8-1.9,0.1-2.5s1.8,0.3,2.6,0.8
			c4.6,3.2,8.3,7.5,10.9,12.4c1.1,2,1.7,4.3,1.9,6.5c1,12.5-1.4,24.1-9.9,33.8c-2.1,2.4-4.8,4.2-7.5,6.4c1,0,2-0.4,2.8-1.1
			c7.7-5.6,12.1-13.3,14.3-22.4c1.6-6.8,2.4-13.7,0.2-20.6c-0.2-0.8-0.5-1.6,0.2-2.3c4.5,3.2,6.7,7.9,8.1,13
			c2.1,7.5,2.4,15.1,1.8,22.8c-0.8,11.6-3.3,22.9-5.3,34.3c-0.7,2.9-0.8,5.8-0.4,8.8c0.1,0.3,0.1,0.7,0.1,1c0.8,3.4,2.3,4.1,5.2,2.3
			c4.3-2.6,8.7-4.8,13.1-7.3c3.6-2.1,7.5-3.5,11.6-4.3c5.9-1.2,11.9-2.2,17.9-1.6c0.1,0.7-0.5,0.8-0.9,0.9
			c-11.3,3.1-18.1,11.5-24.1,20.7c-3.5,5.4-6.2,11.3-9.7,16.7c-2.1,3.3-5,5.8-7.6,8.6c-0.5,0.6-1.5,1.1-1.2,2s1.3,0.4,2,0.6
			c0.9,0.3,1.9,0.4,2.9,0.3c1.7-0.3,3.4-0.9,3.2,2.2c-0.1,1.3,1.4,1,2.3,0.9c4.6-1,9.1-2.5,13.4-4.6c6-2.8,11.6-6.4,17.5-9.2
			c0.7-0.3,1.4-1.3,2.3-0.6c-2.6,7.5-6.6,14-12.9,18.9c-4.4,3.4-9.4,6-14.6,7.7c-3.2,1.1-6.4,0.6-9.6-0.2c-2-0.5-2.2-1.3-3.5,1.4
			c-1.1,2.3-3.1,4-4.4,6.1c-1.4,0.1-1.3,1.3-1.6,2.1c-7.6,6.5-16.8,10.6-26.7,12.1c-3.5,0.5-6.9,0.8-10.4,0.8
			c-1.6-0.9-3.2-1.6-5-0.5c-6.8-1.1-13.3-3.2-19.5-6.2c-7.8-3.9-14.7-9.4-20.3-16.2c0.7-2.5,1.8-2.9,3.8-1.4c0.9,0.8,1.8,1.4,2.8,2
			c2.9,1.4,5.7,0.2,6.5-2.9c1.2-4.4-2.3-10.8-6.6-12.2c-0.9-0.4-1.9-0.4-2.9-0.2c-2.1,0.8-3.2-0.3-4.1-2c-2.2-4.4-3.2-9.3-3-14.3
			c-0.1-2,0.2-4.1,0.8-6c0.3-1.4,1.6-2.4,3-2.4c3.9-0.1,6.7-1.6,8.1-5.4c1-2.7,2.7-4,6-3.6c4.1,0.5,8.3,1.1,12.4,1.8
			c5,0.7,9.2,3.9,11.2,8.5c1.1,2.4,2.4,4.8,3.8,7.1c6.6,10.7,16.3,16.9,28.5,19.4c3.7,0.9,7.6,1.2,11.4,1.1c0.8,0.1,1.6-0.1,2.4-0.4
			c-3.3-0.4-6.6-0.3-9.9-0.8c-8.3-1.1-16.2-4.4-22.8-9.5c-4.5-3.5-7.6-8-10.3-12.9l-3.8-6.9c-1.4-2.6-3.8-4.6-6.7-5.4
			c-5.3-1.6-10.7-2.4-16.2-2.6c-2.5-0.1-4.4-0.9-5.4-3.3c0.1-0.2,0.2-0.4,0.3-0.7c1.8-14.5,9.1-25.7,20.6-34.5c0.8-0.4,1.5-1,2-1.8
			c5.4,2.1,7.3,6.6,8.1,11.9c0.1,1.4,0.1,2.8,0,4.2c0,0.7,0,1.4-0.6,1.8s-1.1-0.4-1.6-0.8c-3.7-3.2-6.6-2.8-9.4,1.1
			s-3.1,10.9-0.5,15.1c1.4,2.6,4.7,3.6,7.3,2.2c0.5-0.3,1-0.7,1.5-1.2c2.6-2.6,3.2-6,3.6-9.4c0.1-1.5,0.5-2.9,1.1-4.2
			c2.2-4.9,2.6-10.4,1.4-15.6c-0.9-3.8-2.8-5.3-6.7-5.6C140,81.6,139.1,81.8,138.6,80.9z"/><path fill="#040408" d="M480.6,442.9c-0.7,2.5-0.4,5.2-0.8,7.8c-0.6,3.5-1.5,6.9-2.7,10.2c-2.5,6.6-7.3,11.1-13.3,14.5
			c-4,2.1-8.1,3.8-12.4,5.1c-12.6,4.4-25.7,6.8-38.9,8.7c-9.8,1.4-19.6,2.3-29.5,2.8c-14.9,0.6-29.7-0.3-44.2-4.4
			c-9-2.5-17.1-7.4-23.4-14.2c-0.8-1.1-2.2-1.4-3.3-0.9c-2.5,0.9-4.9,1.8-7.3,2.9c-6.5,3.1-13.6,4.8-20.8,4.9l-10,0.1
			c-6.3,0-12.6-1.3-18.3-3.9c-7.6-3.4-14.6-7.6-20.5-13.6c-9-9-14.8-20.6-16.5-33.2c-0.1-0.3-0.2-0.6-0.3-0.9
			c-0.8-13.3,3-25.5,9.5-36.9c7.9-13.8,18.5-25.9,31.1-35.5c5.5-4.3,11-8.5,15.6-13.7c3-3.3,5.5-7.1,7.3-11.3c1.4-3,1-6.6-1.1-9.2
			c-3.6-5.1-7.6-10-12-14.6c-2.7-2.8-5.8-5-9.8-5.7c-3.5-0.7-4.2-2.4-3.1-5.7c0.4-1.1,0.8-2.1,1.2-3.2c0.6-1.9,0.4-2.2-1.6-2.5
			c-1.1-0.1-2.1-0.2-3.1-0.4c-2-0.4-2.8-1.5-2.5-3.5c0.2-1.1,0.5-2.2,0.9-3.3c2.2-5.2,5.4-9.9,9.5-13.8c0.4-0.4,0.9-0.8,1.3-1.1
			c2.3-1.7,3.2-1.4,4.1,1.5c0.7-0.6,1.4-1.2,2-1.8c1.7-1.7,3.6-3.3,5.7-4.6c1.1-0.7,2.3-1.2,3.6-1.5c2.4-0.4,3.4,0.5,3,3
			c-0.1,0.6-0.5,1.2-0.1,2c2.5-0.5,5-1.4,7.4-2.1c4.1-1.1,8.1-2.4,12.2-3.5c2.9-0.7,5.9-0.7,8.7,0.1c3.2,0.8,3.8,2,2.7,5.1l-0.3,0.9
			c0.6,0.7,1.3,0.6,2,0.9c1.5,0.6,3.1,1,4.6,1.6c2.7,1.2,3.5,3.1,2.8,6c-0.4,1.3-0.9,2.6-1.5,3.9c-4,8.4-5.9,17.6-5.4,26.9
			c0,4.8,1,9.4,2.9,13.8c0.3,1.1,1,2,1.9,2.7l17.3-19.9c1.7-2,3.3-4,4.8-6.2c3.4-5.3,3.2-10.4-0.6-15.4c-1.5-1.9-3.2-3.5-5.1-4.9
			c-3.7-2.8-7.7-5.2-11.9-7.4c-1.5-0.7-3-1.6-4.5-2.6c-2.2-1.6-2.5-2.8-1-5.2c0.9-1.5,1.9-2.9,2.7-4.4c0.6-1.1,0.4-1.4-0.8-1.6
			c-1.4-0.2-2.8-0.3-4.1-0.5c-3.3-0.6-5-3-4-6.3c1.5-4.9,4.8-9,9.3-11.5c1.6-0.9,2.5-0.5,3.2,1.3c0.6,1.5,0.6,1.6,2,0.7
			c2-1.3,3.8-2.8,5.6-4.4c1.9-1.7,4-3.2,6.1-4.4c1.1-0.7,2.3-1.2,3.6-1.4c1.9-0.3,2.7,0,3.3,2c0.3,1.1,0.9,1.2,1.8,1.1
			c1.8-0.3,3.7-0.8,5.5-1.4c4.5-1.3,9-2.9,13.8-3.2c1.4-0.2,2.8,0,4.1,0.4c2.8,1,3.4,2.6,1.9,5.1c-0.8,1.3-1.8,2.5-2.6,3.8
			c-1,1.7-0.9,2.1,1.1,2.3c1.4,0.1,2.8,0.2,4.2,0.2c2.4,0,4.9,0.4,7.3,1c0.6,0.2,1.2,0.4,1.8,0.6c3.2,1.5,3.9,3.8,1.9,6.7
			c-0.7,1.1-1.6,2.1-2.5,3c-4.6,5.2-6.7,11.5-7.3,18.3c-0.4,3.4-0.3,6.9,0.5,10.2c0.2,0.7,0.3,1.4,0.6,2.1c1,3,1.1,3.1,4.1,2
			c2.8-1.1,5.7-1.9,8.7-2.5c1.3-0.2,2.9-0.6,3.9,0.7s0.1,2.8-0.5,4.1s-1.5,2.7-2.1,4.2c-0.8,1.7-0.5,2.1,1.5,2.2
			c0.9,0,1.8,0,2.7-0.1c4-0.3,8-0.7,12-0.7c2.3,0,4.6,0.3,6.8,0.9c0.6,0.1,1.2,0.4,1.8,0.7c2.1,1.1,2.5,2.6,0.9,4.6
			c-0.8,1-1.8,1.9-2.8,2.7l-3.4,2.8c2.1,1.9,4.5,3.4,7,4.6c5.4,2.7,10.9,5.3,16.3,7.9c10.2,5,19.9,11,28.8,18
			c9.1,6.8,15.3,16.7,17.4,27.8c1.7,8.7,1.4,17.3-1.9,25.5c-1,2.3-1.2,5-0.4,7.4c1.4,4.8,2.4,9.7,3.2,14.6c0.6,5,1,10.1,1,15.1
			C480.8,430.3,480.7,436.6,480.6,442.9z"/><path d="M186.8,180.5c-0.2-0.6-0.9-0.9-1-1.7c0.9-0.7,1.7,0.1,2.6,0.2c2.6,2.5,5.5,4.6,8.6,6.5c1,0.6,2,1,2.1,2.4
			c0,0.7,0.9,1.1,1.5,1.6c5.8,4.3,10.4,10.1,13.1,16.8c4.5,10.7,9,21.3,11.9,32.6c2.1,7.7,2.4,15.7,0.8,23.5
			c-1,4.9-3.4,9.4-6.8,13.1c-1,1-1.6,2.2-1.7,3.6c-0.7,5.1-1.9,10.1-3.4,15c-1.8,6.4-2.9,13.1-3.4,19.8c-0.5,6.2-0.9,12.4-1.3,18.6
			c-0.1,2,0,3.9-0.1,5.9c0,0.9,0.1,2-0.4,2.6c-1.9,2.3-1.2,5.1-1.4,7.7c-1.1,12.5-4.1,24.7-8.8,36.3c-4.8,12.1-12,22.6-20.1,32.6
			c-1.6,1.8-2.9,3.9-3.8,6.2l-3.4,5.5c-1.2,2.9-3.8,4.1-6.4,4.6c-4.4,0.9-8.6,2.2-12.8,3.9c-1.3,0.7-2.9,0.8-4.3,0.4h-0.1
			c-0.2-0.1-0.4-0.2-0.6-0.2c-1.8-0.8-2.5-2.5-2.8-4.3c-0.4-2.3-0.5-4.7-0.2-7c0.2-1.2,0.3-2.4,0.2-3.6c-1-2.7,0-5.3,0.1-7.9
			c0.4-5.5,1.3-11,0.3-16.6c-0.3-1.6-0.2-4-2.2-4.2c-1.9-0.1-2.1,2.2-2.6,3.7c-2.6,8.1-5.1,16.2-7.6,24.3c-0.3,0.9-0.4,2-1.3,2.6
			c-1,2.9-1.7,5.9-2.9,8.8c-0.8,2.1-1.8,4-2.9,5.9c-0.9,1.6-2.3,2.8-4,3.5c-2.3,1.6-4.6,1.3-6.8,0c-3.6-2.3-7-4.7-10.4-7.3
			c-1.2-0.7-1.7-2.2-1.1-3.4c0.4-1.4,0.2-3-0.4-4.3c-1-2.3-2.3-4.5-3.9-6.5c-1.1-1.7-2.2-3.4-3.4-5c-4.2-5.8-7.4-12.2-9.3-19.1
			c-0.6-0.9-1-1.8-1.3-2.9c-2-8.2-1.5-16.3,0.6-24.4c0.2-1,0.7-2,1.4-2.8c1.2-5.7,3.3-11.1,6.3-16.1c1.4-2.4,2.9-4.7,3.1-7.6
			c0.3-1.2,0.8-2.4,1.5-3.4c7.4-15.1,12.5-31.3,15.2-47.9c0.6-3.5,0.9-7.1,1-10.7c0.3-4.4,0.9-8.8,1.8-13.1c0.1-0.7,0.4-1.4-0.3-2
			c-3.2-3-4-7-4.2-11.2c-0.2-2.9-0.3-5.7-0.7-8.5c-0.6-4.2-1.9-8.3-3.9-12.1c-1.9-3.4-3.5-7-4.8-10.7c-1-3.6-1.4-7.4-1.4-11.1
			c-0.1-7.1-0.7-14.2-1.8-21.2c-0.8-4.3,0.4-8.6,1.5-12.8c1.1-3.7,2.5-7.4,4.2-10.9c0-2.9-1.1-5.8-0.6-8.7c0.2-1-0.6-1.8-1-2.7
			c-3.2-5.6-4.5-12.2-3.7-18.6c0.3-1-0.2-2-1.2-2.4c-1.6-0.8-2.8-2.3-3.2-4.1c-1.6-4.7-1.9-9.8-0.7-14.6c0.4-1.7,0.7-3.3,1.2-5
			c0.8-2.5,2.1-4.7,4.9-5.2s4.9,0.9,6.6,2.9c1.4,1.7,2.6,3.5,3.8,5.4c0.9,1.6,2,3,3.3,4.2c1.7,1.8,4.2,2.8,6.7,2.8
			c4.4,0.2,8.8,0.8,13.1,1.9c4.3,0.8,7.9,3.6,9.8,7.5c1.3,2.6,2.7,5.2,4.2,7.8c6.4,11.1,16.4,17.2,28.8,19.6c4.1,1,8.4,1.3,12.6,0.9
			c0.7-0.1,1.5,0,1.6,0.8s-0.7,1.2-1.5,1.3c-2.7,0.3-5.4,0.3-8.1-0.1c-2.7-0.3-5.3-0.8-7.9-1.4c-12.5-3.2-22.2-10.1-28.3-21.6
			c-1-1.9-2.1-3.9-3.1-5.9c-1.7-3.5-4.9-6.1-8.8-6.8c-5.3-1.1-10.6-1.9-16-2.3c-0.6,0-1.2,0-1.5,0.6c-0.6,1.2-1.7,2.1-1.9,3.4
			c-0.7,3.2-4.1,5.2-7.7,5.3c-2.6,0.1-2.7,0-3.2,2.5c-1.6,6.8-0.6,14,2.8,20.1c0.5,0.9,0.9,1.6,2.3,0.9c1.8-1,3.7-0.4,5.3,0.7
			c3.9,2.4,6.1,6.7,5.7,11.2c-0.2,4.6-4.5,6.6-8.3,4.1c-0.8-0.6-1.7-1.3-2.4-2.1c-1.2-1.1-1.6-1.1-2.4,0.2c-0.1,0.3-0.2,0.6-0.3,0.9
			c0.4,1.2-0.3,2.2-0.7,3.3c-1.6,4.3-2.7,8.7-3.2,13.3c-0.3,1.1,0.2,2.2,1.2,2.7c9.1,4.9,17.8,10.6,27.6,14c3.9,1.4,3.9,1.3,6.3-1.9
			c1.7-2.2,3.3-4.5,5.1-6.6c0.9-1.1,1.7-2.4,3.3-2.7c2.2-2,2.2-2,4,0.4c0.8,0.2,1.5,0.7,1.9,1.4c2.3,3,5.1,5.7,7.3,8.9
			c1.1,1.6,2.1,1.8,3.7,0.9c6-3.2,12-6.2,18-9.4c4.3-2.3,8.7-4.5,12.9-7.1c0.6-0.4,1.4-0.6,1.8-1.3
			C191.8,185.2,188.5,183.7,186.8,180.5z"/><path fill="#38a1fc" d="M87.2,367.3c-1.1,3.8-1.9,7.7-2.4,11.7c-0.6,5.5-0.2,11.1,1.2,16.4c0.2,0.6,0.3,1.3,0.3,1.9
			c-8.5-3.4-14.4-9.6-19-17.3s-7.3-15.8-9.5-24.3c-1.8-7.3-4.3-14.4-7.5-21.1c3.4-8.4,9.9-13.8,17.8-17.8c0.5-0.3,1.1-0.4,1.6-0.4
			c0.8,0.6,1.4,1.4,1.8,2.2c4.9,7.1,7.9,15.2,9,23.7c1,7.2,2,14.3,4.4,21.2c0.4,1.1,0.9,2.1,1.3,3.2
			C86.4,367.3,86.8,367.3,87.2,367.3z"/><path fill="#000001" d="M233.5,145.1c-4.3,2.3-8.6,4.6-13,6.9c-6,3.2-12.1,6.2-18.7,7.8c-0.9,0.2-1.7,0.4-2.6,0.5
			c-1.8,0.1-2.3-0.5-2-2.3c0.1-0.4,0.2-0.8,0.3-1.4c-2.3,0.8-4.5,0.4-6.7,0.3c-0.4,0-0.8,0-1.2-0.1c-1.1-0.3-1.4-1.1-0.6-2
			c0.8-0.9,1.7-1.7,2.6-2.5c4.9-4.1,8-9.4,10.9-14.9c3.5-6.9,7.8-13.4,12.9-19.3c4.7-5.5,11-9.4,18-11.2c11.5-1.3,21.8,1.3,30.9,8.6
			c4.2,3.3,8.1,7.1,11.5,11.3c1.6,1.7,2.5,4,2.6,6.4c0.1,2.6-1.7,5-4.3,5.5c-1.9,0.4-3.9,0.5-5.8,0.3c-8.3-0.3-16.6,0.5-24.7,2.5
			C240.1,142.3,236.7,143.5,233.5,145.1z"/><path fill="#010101" d="M0,175.5c0-6,1-11.9,3-17.5c3.5-10.1,10.7-16.4,21.1-18.4c14.8-2.9,27.6,0.9,37.9,12.3
			c0.9,0.8,1.6,1.6,2.3,2.6c1.9,3.5,5.1,3.9,8.5,4.2c2.4,0.2,4.7,0,7.1,0s2.8,0.7,1.6,2.6c-2.3,3.8-4.8,7.6-7.3,11.3
			c-0.7,0.8-0.8,2.1-0.2,3c3.4,5.9,3.7,13,0.8,19.1c-6.2,13.8-16.5,23-31,27.1c-9,2.6-17.5,0.5-25.1-4.9c-4.8-3.4-8.7-7.8-11.5-12.9
			C2.6,195.2,0.1,185.4,0,175.5z"/><path fill="#38a1fc" d="M94.2,116.8c0,4.5-0.3,9,1,13.3c0.2,0.6,0.3,1.3,0.6,1.9c0.9,2.4,1.7,3,4.3,3c0.2,0.8,0.2,1.6-0.1,2.4
			c-1,7,0.6,14.1,4.4,20.1c0.4,0.6,0.9,1.2,0.6,2c-0.6,1.9-0.5,3.9,0.2,5.7c0.4,0.9,0.2,2-0.6,2.7c-3-2.3-5.7-5.2-7.7-8.4
			c-4.2-5.9-7.3-12.5-9.2-19.5c-1.4-5.4-1.4-11,0.2-16.4C88.9,120.4,90.4,117.5,94.2,116.8z"/><path d="M69.7,316.5c-1.4,0.8-2.8,1.7-4.2,2.5c-5,2.7-9.2,6.6-12.3,11.3c-0.6,0.8-1,1.7-1.3,2.6c-0.2,0.8-0.7,1.5-1.5,1.8
			c-1.2-2.3-2.4-4.6-3.5-7c-1.2-2.5-2-5.2-2.3-7.9c-0.9-6.5,4.5-12,11.4-11.5c3.8,0.4,7.3,1.9,10.2,4.4
			C67.5,313.8,68.7,315.1,69.7,316.5z"/><path fill="#000101" d="M181.1,37.8c0.4,2.7,1.5,5.3,1.6,8.1c0.6,15.2-3.7,28.4-16.2,38c-0.8,0.7-1.7,1.3-2.7,1.6
			c-0.5,0.2-1,0-1.2-0.5c-0.2-0.4,0-0.8,0.3-1.1c0.4-0.3,0.8-0.7,1.2-1c9.2-6.3,14.1-15.2,16-25.9c0.6-3.9,0.8-7.8,0.5-11.7
			c-0.4-6.1-3.4-11-7.4-15.3c-2.2-2.3-4.7-4.3-7.4-6c-0.3,1,0.2,1.7,0.4,2.4c0.2,0.7,0.3,1.4,0.1,2.2c-0.1,0.5-0.6,0.7-1,0.6
			c-0.2,0-0.4-0.2-0.5-0.4c-0.2-0.3-0.4-0.7-0.5-1.1c-1.1-5.1-4.8-7.7-9.3-9.6c-1.3-0.5-2.8-0.9-4.1-1.3c-0.2,0.2-0.3,0.5-0.2,0.7
			c3.4,10.5,4.1,21.8,1.8,32.6c-0.4,1.7-0.7,3.5-0.7,5.3c0.1,6.4-1,12.7-0.8,19.1c0,3,0.4,6.1,1.2,9c0.1,0.4,0.2,0.8,0.3,1.2
			c0,0.4-0.2,0.8-0.6,0.9c-0.4,0.1-0.9,0-1.1-0.4c-0.6-1.1-1-2.2-1.2-3.4c-0.9-5.2-1-10.6-0.3-15.8c0.5-4.3,0.5-8.6,0.7-12.9
			c0.2-1,0.3-2.1,0.5-3.1c1.9-9.6,1.6-19.4-0.9-28.9c-0.3-1.3-0.9-2.6-1.4-3.9c-0.3-0.8-0.6-1.6,0.1-2.3c0.6-0.6,1.5-0.7,2.3-0.3
			c4.5,1.5,9.1,2.8,12.5,6.4c0.3,0.3,0.6,0.5,1,0.7c4.9,1.3,8.3,4.7,11.6,8.2C177.9,32.3,179.7,34.9,181.1,37.8z"/><path fill="#000001" d="M138.6,80.9h1.9c3.8,0,6.2,1.6,7.3,5.3c1.8,5.7,1.3,11.8-1.3,17.1c-0.6,1.2-0.9,2.4-0.9,3.7
			c0.1,3.2-0.9,6.3-2.8,8.9c-3.4,4.4-8.6,4-11.1-0.9c-2.7-5-2.2-11,1.1-15.5c2.9-4.2,7.1-4.3,10.4-0.4l0.8,1
			c0.5-5.4-0.1-10.1-3.2-14.3c-0.7-0.8-1.5-1.5-2.5-2c-0.7-0.4-1.5-0.7-1.8-1.6C137,81.3,137.7,81,138.6,80.9z"/><path fill="#040404" d="M55.4 246.4c.5.1.9.5 1 1 3.8 11.8 8.9 23.1 16.1 33.2.1.2.3.4.4.6.3.5.5 1.1 0 1.5s-1.1.1-1.5-.3c-.7-.7-1.3-1.5-1.9-2.2-1.6-2.2-3-4.4-4.3-6.8-3.7-7.1-7-14.5-9.9-22-.6-1.2-.9-2.5-.9-3.8C54.5 247 54.7 246.5 55.4 246.4zM248.3 176c0-7.4.5-14.7 1.4-22 .1-1 .3-1.9.7-2.8.2-.5.7-.7 1.2-.6.6.2.6.7.5 1.2-1.8 8.4-1.6 16.9-2 25.3-.1 2.9.1 5.9.6 8.8.1.3.1.7.1 1 0 .4-.3.8-.7.9-.4.1-.8-.1-1-.5-.6-1.3-1-2.8-1-4.3C248.2 180.7 248.3 178.3 248.3 176zM230.7 322.9c.1-.5.2-.9.3-1.4.1-.5.7-.9 1.2-.7.1 0 .1 0 .2.1.4.1.7.5.6.9 0 .1 0 .2-.1.3-.6 1.1-.1 2.1.1 3.1 1.6 6.4 4 12.6 6.9 18.5.8 1.6 1.8 3.1 2.9 4.5.3.4.6.8.8 1.2.2.4.1.8-.2 1.1-.3.3-.8.3-1.1 0-.5-.4-1-.9-1.4-1.4-1.7-2.1-3.1-4.4-4.2-6.9-2.4-5.2-4.3-10.6-5.7-16.1C231 325 230.9 324 230.7 322.9z"/><path fill="#050505" d="M260.5 177.6c-.1-3.2.1-6.9.3-10.6 0-.2 0-.5 0-.7.1-.7.4-1.3 1.2-1.2s.8.7.7 1.3c-.3 3.5-.4 7-.2 10.5 0 6.4-.2 12.7.9 19.1 0 .2.1.5.1.7 0 .5-.1 1-.7 1.1-.5 0-1-.3-1.1-.8-.2-.5-.3-.9-.4-1.4-.5-2.9-.8-5.8-.8-8.8C260.5 184 260.5 181 260.5 177.6zM422.2 256.6c0 .6-.1 1.1-.6 1.3-.7.2-1.1-.2-1.2-.8-.3-1-.5-2-.8-3.1-1.3-7.3-3.6-14.4-6.7-21.2-.3-.6-.4-1.1.2-1.5s1.1 0 1.4.5c.5.8 1 1.7 1.4 2.6 2.9 6.9 4.9 14.2 6.2 21.6C422.1 256.2 422.2 256.5 422.2 256.6z"/><path fill="#080808" d="M121.8 39.6c-.7 0-1.5-.2-2.1-.6-1.8-1.1-3.3-2.7-4.4-4.5-.4-.6-.7-1.2.1-1.7s1.2.2 1.6.7c.9 1.4 2 2.6 3.4 3.5 1.4.9 1.9.8 2.9-.5.8-1.2 1.5-2.5 2-3.9.2-.5.3-.9.5-1.4.2-.5.7-.8 1.2-.6 0 0 0 0 0 0 .5.2.8.7.7 1.2 0 .3-.1.6-.2.9-.7 1.9-1.6 3.8-2.9 5.4C123.9 39 122.9 39.5 121.8 39.6zM123.2 46.4c-.1-1.8.6-3.5 1.9-4.7 2-1.8 4.1-3.5 6.3-5 .6-.4 1.2-.6 1.7.1s0 1.1-.4 1.5c-1.1.9-2.2 1.7-3.3 2.5-.8.7-1.7 1.3-2.5 2-1.5 1.2-2.1 3.2-1.6 5 .1.4.2.8.3 1.2.2.7.8 1.5-.2 1.9s-1.4-.5-1.7-1.3C123.5 48.6 123.3 47.5 123.2 46.4zM121.2 45.5c0 .6-.1 1.1-.3 1.7-1 2-2.5 3.9-4.2 5.4-.5.4-1.1.8-1.7.2s-.2-1.2.3-1.7c1.3-1.1 2.4-2.5 3.3-3.9 1.2-2 .8-3.1-1.4-3.9-1-.3-2-.7-2.9-1.2-.5-.4-1.1-.8-.6-1.6s1-.5 1.5-.1c1.1.5 2.2 1 3.4 1.3C120.2 42.1 121.3 43.8 121.2 45.5zM71.8 262.5c.5.1.9.4 1.2.8 3.1 3.8 5.8 7.8 8.6 11.9.3.5.7 1 .1 1.5s-1.2.1-1.6-.4-1-1.3-1.5-1.9c-2.4-3.3-4.6-6.7-7.1-9.9-.3-.4-.8-.9-.4-1.5C71.1 262.6 71.5 262.5 71.8 262.5zM180.1 7.1c-.9.1-1.8-.2-2.4-.8-1.7-1.3-2.4-3.2-3.2-5.1-.2-.3-.1-.7.2-.9.3-.3.8-.3 1.1-.1.3.2.5.4.7.7.2.4.4.9.6 1.3 1.8 3.6 2.9 3.7 5.7.8.7-.8 1.4-1.6 2.1-2.4.3-.4.8-.5 1.2-.2 0 0 0 0 .1.1.4.3.5.9.2 1.3-1.4 2.1-3.2 3.9-5.5 5.1C180.6 7 180.3 7.1 180.1 7.1z"/><path fill="#0a0a0a" d="M179.6,13.1c0-2.9,0.8-4.2,3-5c1.3-0.5,2.6-0.9,3.9-1.3c0.5-0.2,1.1-0.1,1.3,0.4c0,0,0,0.1,0.1,0.1
			c0.2,0.7-0.1,1.1-0.8,1.3c-1.2,0.4-2.5,0.8-3.7,1.3c-1.6,0.6-2.1,1.2-1.9,2.9c0.1,1.5,0.5,2.9,0.7,4.3c0.1,0.7,0.1,1.4-0.7,1.6
			s-1.1-0.5-1.2-1.2C180.2,15.9,179.8,14.3,179.6,13.1z"/><path fill="#090909" d="M427.6,251.6c0,0.6-0.1,1.2-0.9,1.2s-0.9-0.5-1.1-1.1c-0.3-1.4-0.4-2.7-0.4-4.1c-0.1-3.3-0.7-6.5-1.7-9.6
			c-0.2-0.6-0.4-1.1,0.3-1.4s1.2,0.1,1.5,0.8c0.2,0.5,0.4,1.1,0.5,1.6C427,243.1,427.2,247.4,427.6,251.6z"/><path fill="#080808" d="M177.7,10.5c0,1-0.3,1.9-0.9,2.6c-1,1.1-2.3,2.1-3.7,2.8c-0.5,0.3-1.2,0.2-1.5-0.3c0,0,0,0,0,0
			c-0.4-0.6,0-1.1,0.5-1.4c0.9-0.6,1.8-1.1,2.6-1.8c1.4-1.2,1.4-1.7,0.1-3c-0.9-1-1.9-2-2.9-3c-0.4-0.4-0.7-0.9-0.8-1.5
			c0-0.8,0.7-1.2,1.1-0.8c1.9,1.9,4.1,3.5,5.4,5.9C177.7,10.1,177.7,10.3,177.7,10.5z"/><path fill="#0b0b0b" d="M245.8,333.2c0.3,0,0.7,0.2,0.8,0.5c1.5,2.9,3.1,5.7,4.9,8.4c0.4,0.4,0.4,1,0,1.3c-0.4,0.4-1,0.4-1.3,0
			c-0.1-0.1-0.1-0.1-0.2-0.2c-0.6-0.7-1.2-1.5-1.7-2.4c-1.2-1.9-2.3-3.9-3.2-6C244.7,333.9,245.1,333.2,245.8,333.2z"/><path fill="#111" d="M263.6,207.2c0.9,0.1,1.3,0.8,1.5,1.6s0.4,1.6-0.4,2.2c-0.3,0.2-0.6,0.2-0.9,0.2c-0.7-0.1-1.4-0.6-1.5-1.4
			c-0.3-0.8-0.2-1.6,0.3-2.3C263,207.3,263.3,207.2,263.6,207.2z"/><path fill="#232323" d="M252.9,198.1c-0.1,0.8-0.4,1.4-1.3,1.4s-1.4-0.9-1.4-1.9c0-0.7,0.3-1.3,1.1-1.3
			C252.3,196.4,253,197.1,252.9,198.1C252.9,198.1,252.9,198.1,252.9,198.1z"/><path fill="#38a1fc" d="M103.4 432.2c0 1.4.8 2.7 2 3.4 2.1 1.5 4.2 3 6.3 4.5 3 2.2 6 4.1 10 2.8-.2 1.6-.6 3.2-1.4 4.6-.9 2.2-1.9 4.3-2.9 6.5-2.2 4.9-6.3 7.4-11.3 8.5-5.7 1.1-11.5 1.5-17.3.9-1-1.2 0-2.3.3-3.4.3-1.3 1.2-3.1-.5-3.6-1.4-.4-1.8 1.5-2.3 2.6s.2 2.4-.6 3.5c-5.3-.9-10-3.4-15-5.3-.9-1.3.3-2.2.7-3.3.3-.8.9-1.9-.1-2.4s-1.7.5-2.2 1.3c-.7 1.1-.6 2.5-.8 3.8-.1.4-.2.8-.7.9-.3-1-.4-2.1-1.5-2.9s-1-2-1-3.2c-.1-6.1 2.6-12 7.4-15.8 1.9-1.6 4.2-2.6 6.7-2.8 4-.4 8-.3 11.9.1 3.1.3 6.3 1 9.5.4C101.5 433.1 102.5 432.7 103.4 432.2zM148.2 438.1c3.1-.6 6.1-1.6 9-2.9 2-.9 4.1-1.4 6.3-1.6 3.4-.2 5.8-2.2 8.1-4.4 2.9 0 5.9-.1 8.8-.2 10.7-.3 21.6 5 26.2 15.7 1.3 3.2 1.7 6.7 1.3 10.1 0 .4-.2.8-.5 1.1-.9-.9-.5-2.2-.7-3.3-.4-2.3-1.1-4.3-3.7-4.9-2.5-.6-5.2.5-6.6 2.7-.7 1-.7 2.6-2.2 3.1-.8-.1-.9-.7-1.1-1.3-.1-1.5-.4-2.9-.9-4.3-.4-1.7-2.1-2.9-3.9-2.7-4.3.1-9.6 6.8-9 11.1.3.1.5 0 .6-.3s.2-.3.3-.5.2-.5.3-.8c.1-.2.1-.4.2-.5.1-.2.3-.5.4-.7s.2-.3.2-.5l.2-.5c.1-.2.2-.3.2-.5s.2-.3.2-.5c.1-.2.2-.3.3-.4.1-.1.2-.3.3-.4l.1-.2.3-.4c.1-.1.2-.3.3-.4.1-.1.2-.2.3-.4l.2-.2.3-.3.2-.2.3-.3.2-.2c.1-.1.2-.2.4-.3.1-.1.3-.2.4-.3l.7-.4.4-.3c.2-.1.5-.2.8-.4.2-.1.4-.1.6-.1.4 0 .9 0 1.3.1.2.1.4.2.6.4.5.4.9.9 1.2 1.4.1.2.2.5.3.8.2 2.9.2 5.8-.1 8.6l-3.9-.1-.2-.2c0-.1 0-.2 0-.3.1-.4.2-.8.3-1.1 0-.2.1-.4.2-.5.1-.4.2-.7.3-1.1 0-.2.1-.4.1-.6 0-.3 0-.5 0-.8 0-.2-.1-.3-.1-.5-.1-.2-.1-.5-.3-.7-.1-.1-.2-.3-.3-.4-.1-.1-.3-.2-.4-.3l-.3-.1c-.3-.1-.7-.1-1 0-.2.1-.3.1-.5.2s-.3.2-.4.3l-.2.2c-.1.2-.3.4-.4.6-.1.2-.1.3-.2.5-.1.3-.2.5-.3.8l-.1.6c-.3 1.2.4 2.5-.7 3.5-4.2-.1-8.4 0-12.7-.3-4.1-.3-8-1.8-11.3-4.2C153.7 449.7 149.9 444.3 148.2 438.1z"/><path fill="#fff" d="M131.5,424.8c1.1-5.1,2.9-10,4.4-15c1.3-4.1,2.6-8.2,3.9-12.3c0.3-1.2,0.8-2.3,1.4-3.4
			c1.2-1.8,2.5-1.7,3.5,0.2c0.5,1,0.8,2.1,1,3.3c0.6,3.6,0.7,7.3,0.3,11c-0.4,4.8-0.9,9.6-1.4,14.3c-0.1,0.2-0.3,0.4-0.4,0.6
			c-0.5,2.4-0.5,2.4-2.8,2.4c-2.7,0-5.5,0-8.2,0C132.5,425.8,131.7,425.9,131.5,424.8z"/><path fill="#4b8de1" d="M191.3,457.8c-0.5-1-0.6-2.2-0.5-3.3v-6.1c1.3,0.2,1.1,1.3,1.1,2.1c0.2,1.7,0,3.4,0.1,5.1
			c1.3-0.2,0.2-1.2,0.6-1.7c0.1-0.8-0.1-1.8,1.1-2.1c0.1,0.6,0,1.2,0.6,1.6c0.9,0.8,0.1,1.9,0.5,2.9c0.8-0.8,0.8-1.8,1.1-2.7
			c0.4-1.1,0.9-2.1,1.5-3c1.4-1.8,3.8-2.5,5.9-1.7c1.8,0.8,3,3.4,2.6,5.9c-0.2,1.4-0.6,2.7,0,4.1c-0.7,1.3-1.9,1.6-3.3,1.5
			c-0.9-1.1-0.1-2.3-0.3-3.5c-0.1-0.8,0.1-1.8-1-1.9s-1.3,0.9-1.5,1.8s0.1,2-0.7,2.8C196.6,458.7,193.9,458.6,191.3,457.8z"/><path fill="#020406" d="M206,458.6c-1.2-0.3-1.5-1-1.1-2.2c0.5-1.5,0.6-3.1,0.2-4.6c-0.3-2-2.2-3.3-4.2-3c-0.2,0-0.4,0.1-0.6,0.2
			c-1.4,0.5-2.6,1.5-3.2,2.9c-0.6,1.3-1.1,2.7-1.4,4.2c-0.2,0.7-0.4,1.7-1.3,1.5c-1.1-0.3-0.8-1.3-0.6-2.1c0.3-0.7,0.4-1.4,0.4-2.1
			c0.4-0.9,0.8-1.8,1.2-2.6c0.8-1.7,2.3-3,4.1-3.6c3-0.9,7,0.3,7.6,4.4c0.2,1.5,0.1,2.9,0.2,4.4c-0.3,0.8-0.7,1.6-1,2.4
			C206.4,458.4,206.2,458.6,206,458.6L206,458.6z"/><path fill="#020203" d="M188.3,452.5c-0.1,0.1-0.1,0.2,0,0.3c0,0,0,0,0,0c0.3,0.2,0.3,0.7,0.1,0.9c0,0,0,0-0.1,0.1
			c-0.1,0.1-0.1,0.2-0.1,0.3c0,0,0,0,0,0.1c-0.3,0.5,0,1.2-0.4,1.6l0,0c-0.4,0.4-0.1,1.1-0.5,1.5l0,0c-0.1,0.1-0.2,0.3-0.2,0.5
			l-1.2,2.8c-0.3,0.6-0.7,1.1-1.4,0.9c-0.6-0.1-1-0.6-1-1.2c-0.1-0.6-0.1-1.3-0.2-1.9c0-1.7-0.3-3.4,0.2-5.1l0,0
			c0.3-0.3,0.2-0.7,0.4-1l0,0c0.3-0.2,0.2-0.8,0.6-0.9l-0.1,0.1c0.1-0.3,0.3-0.5,0.6-0.5l-0.1,0c0.7-0.6,1.7-0.6,2.4,0l-0.1-0.1
			c0.3,0.1,0.5,0.3,0.6,0.5l-0.1-0.1C188.2,451.6,188.2,452.1,188.3,452.5z"/><path fill="#030405" d="M85.7,462.6c-0.6-2.2,0-4.6,1.5-6.3c0.3-0.6,1-0.9,1.6-0.8c0.7,0.2,1.3,0.8,1.4,1.5c0.2,1,0.1,2.1-0.3,3.1
			c-0.6,1-1,2.2-1,3.4c0,0.3-0.1,0.6-0.2,0.9c0,0.5-0.4,0.9-0.8,1c-0.5,0.1-1-0.2-1.2-0.7C86.4,464.1,86,463.3,85.7,462.6z"/><path fill="#040506" d="M67.5,457.5c0.1-1.5-0.1-3.1,0.7-4.5c0.3-0.7,0.7-1.3,1.2-1.8c0.5-0.7,1.5-0.9,2.2-0.4
			c0.7,0.4,1.1,1.3,0.9,2.1c-0.2,0.9-0.6,1.7-1.1,2.4c-0.5,0.6-0.7,1.3-0.7,2c-0.1,0.6-0.2,1.3-0.3,1.9s-0.3,1.5-1.3,1.5
			s-1-0.7-1.2-1.3S67.7,458.1,67.5,457.5z"/><path fill="#020304" d="M199.3,459.3c0-0.9,0-1.8,0-2.7c0-0.7,0.2-1.4,0.6-2c0.5-0.7,1.3-1,2.1-0.8c1,0.2,1.2,1,1.3,1.8
			c0,1.5-0.1,3.1-0.5,4.5c-0.2,0.5-0.4,1.1-0.6,1.6c-0.3,0.8-0.4,2-1.6,1.8c-1-0.2-0.8-1.2-0.9-2C199.7,460.7,199.6,460,199.3,459.3
			z"/><path fill="#4b8de1" d="M183.5,453.3c-0.1,1.7-0.1,3.4-0.2,5.1c-0.4-0.1-0.2-0.5-0.4-0.7C183.3,456.3,182.5,454.7,183.5,453.3z"/><path fill="#4b8ee2" d="M147.5,437.8c0.3-0.1,0.5,0,0.6,0.2C147.9,438.1,147.6,438.2,147.5,437.8z"/><path fill="#4b8de1" d="M187.2 457.7c-.1-.2 0-.4.2-.5 0 .2 0 .3 0 .5l-.1.1L187.2 457.7zM206 458.7c0-.3.2-.4.5-.4C206.5 458.5 206.3 458.7 206 458.7 206.1 458.7 206.1 458.7 206 458.7z"/><path fill="#fff" d="M145 193.3c-3.4 3.6-6.4 7.4-9.2 11.5-.6 1.1-1.9 1.6-3.1 1.1-2.3-.6-4.5-1.4-6.7-2.4-4-1.7-7.8-3.8-11.6-5.8s-7.6-4.4-11.6-6.4c-2.3-1.1-2.2-1.4-2-3.9.6-5.6 2.1-11.1 4.4-16.2.6.3 1.2.8 1.6 1.4 9.7 10.6 21.4 17.4 35.6 19.8C143.3 192.5 144.2 192.8 145 193.3zM186.8 180.5c2.7 2.5 5.7 4.7 8.9 6.7-.5.7-1.2 1.3-2 1.6-10.5 6-21.2 11.4-32 16.9-2.3 1.2-1.7 1.4-3.5-.8-3-3.8-6.1-7.4-9.1-11.2.9-.7 1.9-.4 2.8-.4 8.4 0 16.7-2 24.2-5.8 3-1.5 5.8-3.3 8.4-5.4C185.1 181.4 185.9 180.8 186.8 180.5z"/><path d="M149.8,122.8c8.4,0.4,16.7,1.4,24.5,5.1c3,1.5,4.5,3.8,5.5,6.8c0.3,0.8,0.5,1.6-0.3,2.3s-1.7,0.2-2.4-0.3
			c-1.1-0.7-2.2-1.4-3.3-2.1c-1.7-1-1.7-1-3.2,0.3c-4.2,3.7-10.2,4.7-15.3,2.3c-4.1-1.9-6.4-5-6-9.7c0.1-1.1-0.3-1.4-1.2-1.6
			c-1.2-0.2-2.4-0.4-3.6-0.7c-0.6-0.1-1.1-0.3-1.1-1s0.6-0.9,1.2-1C146.2,122.9,148,122.8,149.8,122.8z"/><path fill="#030609" d="M164.8,71.1c0-0.2,0-0.5,0.1-0.7c1.2-4.8,3.2-9.4,5.9-13.6c0.1-0.1,0.2-0.3,0.3-0.4c0.4-0.5,0.9-1.2,1.6-0.7
			s0,1.2-0.3,1.7c-2.8,4.2-4.8,8.9-6,13.8c-0.1,0.6-0.1,1.2-1,1.1C164.7,72.2,164.8,71.6,164.8,71.1z"/><path fill="#04070b" d="M160.9,71.4c0,1.2-0.1,2.4-0.3,3.6c-0.1,0.5-0.2,1.1-0.8,1s-0.8-0.8-0.7-1.3c0.6-2.8-0.1-5.5-0.1-8.3
			c0-1.9-0.4-3.9-0.6-5.8c0-0.5-0.1-1.1,0.5-1.2s0.9,0.4,1.1,1C160.6,64.1,160.5,67.8,160.9,71.4z"/><path fill="#03070b" d="M169.2,100.2c0.4,0.9,0.7,1.8,0.8,2.8c0.1,0.4-0.1,0.8-0.5,1c0,0-0.1,0-0.1,0c-0.5,0.1-0.7-0.2-0.9-0.6
			c-0.1-0.4-0.3-0.8-0.4-1.2c-1.2-3.8-2.5-7.4-5.4-10.2c-0.4-0.4-0.6-0.8-0.2-1.3s0.9-0.1,1.3,0.2c0.8,0.6,1.5,1.3,2,2.1
			c1.3,1.9,2.3,3.9,3,6.1C169,99.5,169,99.9,169.2,100.2z"/><path fill="#04080c" d="M184,168.2c-0.3-0.1-0.9-0.1-1.5-0.3c-0.4-0.1-0.7-0.5-0.7-0.9c0-0.4,0.4-0.8,0.8-0.8c0.7-0.1,1.5,0,2.2-0.1
			c1.5-0.1,2.9-0.4,4.3-0.7c0.5-0.2,1,0,1.2,0.4c0,0,0,0,0,0c0.3,0.7-0.1,1.1-0.7,1.3C187.9,167.8,185.9,168.2,184,168.2z"/><path fill="#0c1623" d="M171.3 98.8c0 .7.1 1.2-.6 1.3s-.9-.4-1-.9c-.3-1.8-.8-3.5-1.4-5.2-.2-.4 0-.8.4-1 0 0 .1 0 .1 0 .4-.1.9.1 1 .5 0 0 0 0 0 0C170.7 95.2 171.2 97 171.3 98.8zM169.2 100.2c-.3-.2-.5-.6-.4-1C169.1 99.4 169.3 99.8 169.2 100.2z"/><path fill="#ffd574" d="M376.1 490.4c-12.4-.2-24.3-1-36-4.3-12.4-3.5-22.3-10.3-29.1-21.4-5.9-9.6-8-21.2-5.8-32.3 2.4-12.8 8.1-24.1 16.4-34 4.1-4.9 8.4-9.6 12.6-14.3 3.9-4.4 8.2-8.5 12.6-12.3 7-6.2 13.2-13.2 18.5-20.8 1-1.7 2.9-2.6 4.8-2.3 5.1.3 10.3-.6 15.3-1.4 1.9-.3 3.8-.8 5.7-1.3 4.5-1.2 8.9-2.8 12.6-5.8.8-.7 1.9-.9 2.9-.4 10.3 4.5 20.8 8.2 30.9 13.1 11.5 5.5 20.9 13.6 28.8 23.5 3.2 3.9 5.6 8.3 7 13.1 2.2 6.9 3.8 13.9 4.8 21 1 8.4 1.2 17 .9 25.4-.2 5.6-.3 11.3-1.4 16.8-.6 3.7-1.8 7.3-3.6 10.6-2.8 5-7.1 8.5-12 11.2-2.2 1.1-4.4 2.1-6.7 2.9-11 4-22.3 6.9-33.9 8.7-11.8 2-23.6 3.3-35.5 4C382.6 490.2 379.2 490.3 376.1 490.4zM310.1 269.5c2.3.4 4.5 1.1 6.5 2.1 1.8.8 2.2 1.8 1.8 3.8-.3 1.3-.8 2.5-1.4 3.6-4.4 9.3-6.3 19.5-5.5 29.8.1 3.7.9 7.3 2.3 10.7.9 1.9.8 2.1-1.4 2.5-3.9.8-7.8 1.6-11.8 2.1-4.6.6-9.2 1.3-13.9 1.6-1.4.2-2.7-.5-3.2-1.8-4.4-7.5-9.8-14.3-16.3-20.1-1.9-1.7-4.2-2.9-6.7-3.3-.6-.1-1.1-.2-1.7-.4-1.7-.6-2-1.2-1.5-3s1.2-3.4 1.8-5.1c.7-.4 1.2.2 1.8.5 3.6 1.9 7 4.2 10.3 6.7.7.5 1.6 1.8 2.4.8.7-.9-.7-1.4-1.4-2-4.4-3.5-9.3-6.4-14.4-8.7-1.5-.5-3-.8-4.6-.8-1.7-.3-1.9-.6-1.7-2.3.1-.6.3-1.3.5-1.9 2.1-5.4 5.5-10.3 9.8-14.2.4-.4.8-.8 1.4-.8 2.4 5.1 5.7 9.6 9.3 13.9.2.2.3.4.5.5.2.2.6.2.9 0 .3-.2.3-.6.1-.9-.4-.6-.8-1.2-1.3-1.8-2.1-2.6-4-5.4-5.9-8.1-.6-.9-.6-1.5.3-2.3 1.6-1.3 3-2.8 4.5-4.1 1.1-1 2.3-1.8 3.6-2.5.8-.4 1.7-1.1 2.5-.5s.1 1.5 0 2.3c-.2.6-.2 1.3 0 1.9 2.5 5.2 5.1 10.4 8.6 15.1.2.3.4.5.6.8.4.4.7 1 1.4.5s.1-1.1-.2-1.5c-2.7-3.6-5-7.4-7-11.5-.5-.8-.9-1.6-1-2.6 6.7-2 13.4-4.2 20.2-5.8 2.6-.5 5.2-.4 7.8.4 1.4.4 1.9 1 1.3 2-1.4 2.6-1.1 5.4-1.4 8.1-.3 3.6-.2 7.2-.3 10.8 0 .3 0 .7.1 1 .1.7-.1 1.8.9 1.7s.7-1.1.7-1.8C309.4 279.7 309.6 274.6 310.1 269.5z"/><path fill="#ffd574" d="M475.1 387.5c-.4-.2-.7-.7-.8-1.1-1.6-4.3-4-8.3-6.9-11.8-8.8-10.9-20.1-19.6-33-25.2-9.1-3.9-18.4-7.6-27.6-11.4-.4-.1-.7-.3-1.1-.5-2.1-.7-3.7-1.8-4.1-4.3-.2-1-.6-2-1.2-2.9-2.4-4.8-2.3-9.6-.7-14.5 1.4-4.2 4-7.9 7.3-10.8.5-.6 1.3-.7 1.9-.3.1 0 .1.1.2.2 4.7 3.8 10.2 6.2 15.5 8.7 11.6 5.4 22.8 11.3 33 19.2 5 3.9 9.9 7.8 13.3 13.2 5.7 8.9 8.1 19.5 7 30C477.7 379.9 476.7 383.8 475.1 387.5zM344.5 234.2c6.3-1.1 12.2-3.7 18.5-4.7 1.8-.4 3.8-.4 5.6.1 1.5.6 1.7 1.1.9 2.6-.1.1-.1.3-.3.4-3.3 3.2-3.6 7.2-3.5 11.5.2 5-.2 10.1.6 15.2.1.8.3 1.6.6 2.4.1.2.4.3.6.3.3 0 .6-.3.7-.6.1-.6 0-1.1-.2-1.7-.9-6.3-.7-12.5-.7-19 4.1.5 8.2.1 12.2 1.1 5 1.3 5.7 3 2.3 6.7-6.2 6.7-8.6 14.7-8.9 23.5.1 1.5-.9 3-2.4 3.4-7.2 2.8-14.5 5.1-22 6.8-1.6.4-3.2.7-4.8 1-.8.2-1.7-.2-2-1-2.1-3.1-4.8-5.8-8-7.9-3.6-2.5-7.4-4.8-11.3-6.8-1.1-.5-2.2-1.1-3.2-1.8-1.8-1.2-2-1.8-.8-3.6 1.1-1.6 2.1-3.2 3.1-5 .9-.1 1.2.6 1.6 1 2.8 2.7 5.3 5.5 7.7 8.6.4.5.7.9 1 1.4s.7.7 1.2.3.3-.8 0-1.1c-.5-.8-1.1-1.6-1.7-2.4-2.3-2.8-4.8-5.4-7.3-7.9-1.8-1.9-4.3-3.1-6.9-3.2-.8 0-1.6-.1-2.4-.3-2.4-.6-3.2-1.9-2.6-4.4.3-1.2.8-2.3 1.5-3.3 1.8-3 4.3-5.4 7.3-7 2.8 4.8 6.1 9.1 9.2 13.5.4.6.8 1.8 1.8 1.1s-.1-1.5-.5-2.1c-2.2-3.2-4.5-6.4-6.9-9.6 3-2 5.9-4.2 8.7-6.6 2-1.7 4.2-3.1 6.7-4 1.9-.6 1.9-.5 2.4 1.4 1.5 5.9 3.4 11.8 5.7 17.4.1.2.2.4.3.6.2.3.5.6 1 .4.3-.2.5-.5.4-.8-.2-.7-.4-1.4-.7-2.1-1.5-4-2.9-8-4.1-12C344.7 235.4 344.6 234.9 344.5 234.2z"/><path fill="#ffd574" d="M389.1,293.8c5.1,0.3,9.9-0.6,14.8-0.6c2.8-0.1,5.6,0.1,8.3,0.7c1,0.3,2.3,0.4,2.6,1.5
			c0.2,1-0.9,1.7-1.6,2.3c-2,1.7-4,3.3-6.1,5c-4.4,3.4-7.6,8-9.2,13.3c-1.5,5-1.5,10,1,14.8c0.3,0.5,0.4,1,0.6,1.5
			c-0.6,0.6-1.3,1.1-2.2,1.2c-7.7,2.2-15.3,4.7-23.1,6.3c-1.4,0.3-3,0.9-4.3,0.5s-1.3-2.3-2-3.5c-4.3-7.3-9.9-13.8-16.5-19.2
			c-1.8-1.4-3.6-2.9-5.2-4.4c-2.9-3.1-2.7-5.7,0.6-8.3c0.8-0.7,1.7-1.3,2.5-2s1.4-1.5,2.3-2.4c0.8,1,0.8,2.3,1.1,3.4
			c0.6,2.2,1.3,4.4,2.2,6.5c0.3,0.6,0.6,1.2,0.9,1.7c0.1,0.3,0.5,0.4,0.8,0.3c0,0,0,0,0.1,0c0.3-0.2,0.5-0.5,0.4-0.8
			c-0.1-0.4-0.2-0.8-0.4-1.1c-2-4.9-3.5-10-4.3-15.3c-0.4-2,0.1-4.1,1.5-5.7c1.5-1.9,3.2-3.5,5.3-4.7c1.5-0.9,1.8-0.6,1.9,1
			c0.7,5.1,1.9,10.1,3.8,14.9c0.3,0.9,0.6,2.8,2,2.2c1-0.5-0.2-1.9-0.6-2.8c-1.1-2.9-2-5.9-2.6-9c6.4-1,12-4.1,18-6.1
			c2.2-0.8,4.5-1.4,6.8-1.9c0.9-0.4,2-0.3,2.9,0c-0.1,1.2-0.5,2.4-1.3,3.4c-1.6,2.7-2.5,5.7-2.5,8.8c0,3.3-0.4,6.5-0.3,9.8
			c0,0.9,0.1,1.8,0.3,2.7c0.1,0.4,0.4,0.8,0.9,0.7c0.4-0.1,0.7-0.5,0.6-0.9c0-0.5-0.1-1-0.2-1.5
			C388.6,301.8,388.7,297.8,389.1,293.8z"/><path fill="#ffd574" d="M367.6,344.7c-6.8-2-13.8-2.7-20.6-4.7c-9.7-2.9-18.5-7.2-26.2-13.8c-1.8-1.6-1.9-1.6-0.5-3.5
			c2.7-3.7,6.2-6.7,9.1-10.2c3.5-4.2,7.2-8.2,10.5-12.6c1.4-1.7,2.5-3.6,3.2-5.7c0.1-0.8,0.8-1.3,1.6-1.2c0.1,0,0.1,0,0.2,0
			c1,0,2,0,2.9-0.1c2.2-0.1,2.1-0.1,2.6,2c0.6,2.3-0.2,4.7-2.1,6.2c-1,1-2.3,1.8-3.4,2.8c-3.3,2.7-3.6,6.4-0.9,9.7
			c1.6,1.7,3.4,3.3,5.3,4.7c6.4,5.1,11.9,11.2,16.3,18.2c0.9,1.5,1.7,3,2.3,4.6C368.6,342.3,368.4,343.7,367.6,344.7z"/><path fill="#050408" d="M314.8,405.2v-0.5l0.6-0.5C315.4,404.7,315.3,405.1,314.8,405.2z"/><path fill="#fdfffe" d="M196.3,346.9c0.2,3.5-0.2,6.8-0.3,10c-0.1,1.7-0.1,3.4-0.4,5.1c-0.5,3.5,0.4,7.1,2.5,10
			c0.4,0.6,0.7,1.3,1.2,1.9c0.7,0.9,0.8,2.2,0.3,3.2c-3.6,9.8-7.7,19.4-14,27.9c-2.6,3.5-5.2,7.1-8,10.6c-2,2.4-3.7,5-5,7.8
			c-1.1,2.5-2.8,4.6-4.9,6.3c-0.9,0.8-2.1,1.4-3.3,1.5c-4.2,0.4-8.1,1.9-11.9,3.5c-0.5,0.2-1.1,0.4-1.6,0.6c-2.9,1-3.9,0.3-4.3-2.7
			c-0.3-3.4-0.2-6.9,0.2-10.3c0.4-5.1,1-10.2,1.3-15.4c0.3-3.4,0.1-6.9-0.5-10.3c-0.2-1-0.5-1.9-0.9-2.8c-0.7-1.7-1.8-3-3.7-3.2
			s-3.2,1.1-4,2.7c-0.6,1.2-1.2,2.5-1.6,3.8c-2.9,9.9-6.4,19.5-9,29.5c-0.7,2.8-1.7,5.5-2.9,8.1c-0.5,1.2-1.2,2.3-1.9,3.4
			c-2.3,3.5-4.8,4.1-8.3,1.8c-3.1-2-6-4.2-9-6.3c-0.7-0.4-1.1-1.3-0.9-2.1c0.2-2.1-0.3-4.3-1.4-6.1c-1.7-3.1-3.7-6.2-5.9-9
			c-3.6-4.9-6.5-10.2-8.7-15.8c-3.4-9.2-3.9-19.2-1.6-28.8c0.2-1,0.9-1.9,1.8-2.3c3.3-1.7,6.4-3.6,9.5-5.6c2.7-1.7,4.6-4.3,5.3-7.3
			c0.6-2,1.1-4.1,1.4-6.2c0.1-0.9,0.4-1.3,1.4-1.2c14.1,1.9,28.2,0.5,42.4,0.5c12,0,24-0.5,36-1.1
			C189.4,348.5,192.9,347.8,196.3,346.9z"/><path fill="#fff" d="M185.9,266c3.5,5.7,8.4,10.3,14.3,13.4c4.7,2.4,9.5,2.7,14.3,0.1c0.3-0.1,0.5-0.2,0.8-0.2
			c-0.1,2.4-0.5,4.7-1.2,7c-1,4-2.2,8-3.1,12.1c-1.2,5.6-2,11.3-2.4,17c-0.4,5.5-0.8,11.1-1.1,16.6c-0.1,2,0,3.9,0,5.9
			c-0.1,3.6-0.7,4.4-4.2,5.3c-4.4,1.1-8.7,2.2-13.1,3.1c-1.8,0.3-3.6,0.5-5.4,0.6c-14.5,0.8-29.1,1-43.6,1.2
			c-6,0.1-12.1,0.3-18.1,0.3c-7.1,0-14.2-0.6-21.2-1.8c-3.7-0.6-4-1.3-2.4-4.7c7-14.2,12-29.3,15-44.9c1-5,1.6-10.2,1.7-15.3
			c0.2-4.4,0.8-8.8,1.7-13c0.7-0.5,1.1,0,1.6,0.2c2.4,0.8,4.8,1.7,7.2,2.5c4.3,1.4,8.3,3.5,12,6c4.1,2.7,8.1,5.5,12.3,8.1
			c3.4,2.4,7.2,4.2,11.3,5.2c4,0.9,8.3-0.1,11.5-2.7c0.8-0.7,1.6-1.4,2.4-2.1c1-1,1.7-2.2,2.6-3.2s2.4-0.6,3.6-1.1
			c1.9-0.8,3.1-2.6,3.1-4.6c0.1-1.6,0-3.3-0.3-4.9c-0.3-1.5-0.4-3.1-0.4-4.6C185,266.7,184.8,265.9,185.9,266z"/><path fill="#fff" d="M172,233.4c1.5,6.9,2.5,13.8,3.7,20.7c1.3,7.8,1.7,15.7,2.3,23.6c0.1,1-0.1,2.1-0.6,3
			c-2.5,3.9-5.6,7-10.4,7.9c-1.9,0.3-3.8,0.1-5.5-0.5c-3.6-1.2-6.9-2.9-10-5.1c-3.5-2.3-7-4.5-10.4-6.9c-5-3.5-10.5-6.1-16.3-7.7
			c-1.2-0.3-2.3-0.8-3.5-1.1c-4.6-1.5-6.8-4.9-7.3-9.4c-0.4-3.4-0.6-6.8-0.9-10.2c-0.4-4.7-1.8-9.2-4-13.3c-0.5-0.9-0.9-1.9-1.4-2.9
			c-3.2-6-4.9-12.7-4.9-19.5c0-6.2-0.5-12.4-1.5-18.5c0-0.2,0.1-0.4,0.1-0.6c2.5,1.1,5,2.5,7.3,3.9c5.6,3.4,11.4,6.4,17.4,9
			c1.3,0.5,2.6,1,3.9,1.5c0.6,0.3,1.5,0.2,1.2,1.4c-0.1,0.5,0.4,0.8,1,0.8s1.3,0,1.9,0c1,2.6,2.4,4.9,5.1,6.1
			c0.6,0.3,1.2,1.1,0.5,1.5c-3.2,2.1-2.6,5.2-2.3,8.3c-0.2,0.5-0.5,1-0.9,1.4c-0.8,0.9-0.1,1.1,0.6,1.2c0.9,0.1,1.7,0.6,2.2,1.3
			c1.4,1.8,2.9,3.5,4.5,5c1.3,1.3,1.2,3.6,1.9,5.3c0,0.6-0.5,1.2-0.4,1.9c0.7,0.4,1.4-0.4,2.1,0c3.3,3,6.6,2.7,10.3,0.6
			s7.2-5.1,11-7.4C169.6,234.2,170.5,233.1,172,233.4z"/><path fill="#38a1fc" d="M145.4,239.9c-0.6-1.4-1.8-2.7-1.4-4.5c0-0.3-0.2-0.6-0.5-0.8c-2.3-1-3.4-3.1-4.8-5c-0.4-0.6-0.8-1-1.5-1.1
			c0-1.3,1.1-1,1.8-1.2c1.2-0.4,2.5-0.5,3.7-0.9c0.5-0.2,1.1-0.5,1-1.2s-0.8-0.7-1.4-0.7c-1,0-1.9,0.2-2.8,0.6
			c-0.8,0.4-1.5,0.9-2.5,0.6c-0.2-1.1-0.4-2.2-0.7-3.3c-0.5-1.8,0.3-3.7,1.9-4.6c0.5-0.3,1.1-0.5,1.3-1.1c-2.8-1.6-5.8-3.1-5.6-7.1
			c1.1,0,2.1,0,3.2,0c0.7,0,1.5-0.1,2.2-0.2c0.6-0.1,1.3-0.5,1.2-1.3s-0.6-0.8-1.2-1c-2.2-0.7-2.2-0.7-0.8-2.6
			c0.4-0.6,0.6-1.3,1.3-1.7c1.4-1.1,3.2-1.4,4.8-0.9c3.9,0.9,7.8,2.2,11.4,3.9c0.4,0.2,0.4,0.7,0.7,1c1.5,2,2.8,2.4,5.1,1.2
			c9.9-5,19.8-10,29.5-15.4c1.9-1,3.8-2.1,5.6-3.3c6.5,4.3,11.6,10.5,14.6,17.7c2.4,5.2,4.4,10.6,6.3,16c0.3,0.9,0.4,1.9,0.8,2.8
			c0.4,1.8,0.5,3.6,0.4,5.5c-0.2,1.5-0.6,2.9-1.2,4.2c-0.4,0.8-0.8,1.6-1.9,1.6c-4.6-7.3-11.6-10.8-19.9-11.8
			c-7.8-0.9-15.6,0.6-22.4,4.4c-2.1,1.1-2.1,1.1-1.6,3.6c-2.5,1.4-4.8,3-7.1,4.7c-2.8,2.1-5.7,4-8.9,5.6c-3.8,1.8-5.9,1.4-8.9-1.8
			c0-1.2,1-1.1,1.7-1.4c0.8-0.3,1.5-0.6,2.2-0.9c0.6-0.4,1.4-0.9,1-1.7s-1.3-0.3-1.9-0.2C148.4,238.2,147.2,239.8,145.4,239.9z"/><path fill="#fff" d="M215.8,237.2c1.6-1.5,2-3.6,2.5-5.6c0.4-1.2,0.1-2.5,0.2-3.7c0.1-0.5-0.2-1.2,0.7-1.2
			c3.8,9.1,6.1,18.6,5.8,28.6c-0.3,6.8-2.2,13-6.7,18.2c-3.1,3.6-6.8,5.9-11.7,5.5c-3-0.3-5.9-1.5-8.3-3.3
			c-4.7-3.2-8.7-7.5-11.5-12.5c-0.5-2,0.6-3.5,1.4-5c3.4-5.9,7.3-11.4,11.7-16.6c2.1-2.6,4.5-5,7.1-7.1c0.9-0.6,1.6-1.4,2.8-1.2
			c1.4,1.2,2.7,2.6,3.7,4.1C214.5,238.8,214.8,238.8,215.8,237.2z"/><path fill="#38a1fc" d="M209.8,233.4c-4.3,2.4-7.4,6.1-10.4,9.8c-3.7,4.5-7,9.2-10,14.2c-1.2,1.8-2.1,3.9-2.7,6
			c-0.2-0.2-0.5-0.5-0.7-0.5c-0.6,0-0.4,0.5-0.4,0.8c0.1,0.8,0.2,1.5,0.3,2.3l-1.1,1.4c-1.2-3.5-1.4-7.2-1.8-10.8
			c-1-7.4-1.9-14.9-3.4-22.3c-0.1-1-0.4-1.9-0.7-2.8c-0.6-1.2-0.2-1.8,1-2.2c5.3-1.9,11-2.5,16.6-1.7
			C201.4,228.2,206,230.2,209.8,233.4z"/><path fill="#fff" d="M205.7 344.7c.1 9.6-2.2 18.5-4.5 27.8-2.2-3.1-3.7-5.9-3.5-9.5.4-5 .7-10.1.6-15.1 0-1 .3-1.5 1.3-1.7C201.5 345.7 203.4 345.2 205.7 344.7zM176.4 231c1.1 2.8 1.7 5.7 2.1 8.6 1.4 9.7 2.7 19.4 4.1 29 .5 2.5.8 5 .9 7.5.1 1.3-.6 2.6-1.8 3.3-.9.5-1.4.3-1.6-.7-.3-1.4-.4-2.9-.5-4.4-.1-6.3-.6-12.6-1.6-18.7-1.1-7.1-2.4-14.1-3.8-21.2C173.8 232 173.7 232 176.4 231zM97.9 347.5c1.7.8 3.5 1.3 5.3 1.4.8.1 1.1.4 1 1.3-.5 2.9-1.3 5.7-2.4 8.5-.4.9-1 1.7-1.8 2.3-3.4 2.5-7 4.8-10.8 6.8C90.8 360.1 94.1 353.7 97.9 347.5zM156.1 205.8c-1 .1-1.9-.1-2.8-.5-2.2-.8-4.4-1.6-6.7-2.3-2.2-.7-4.5-.8-6.7-.2 2.1-3.1 4.4-5.9 7.1-8.5C150 198.2 153.3 201.8 156.1 205.8zM116.7 167.1c-2.8-1.9-5.3-2.3-8-1.1-.6.3-.9.1-1.1-.4-.7-1.8-1.2-3.6-.6-5.5.3-1.5 1.7-2.5 3.2-2.2.2 0 .4.1.6.2.9.3 1.8.8 2.5 1.5C115.3 161.6 116.5 164.3 116.7 167.1zM102.5 114c0 .5-.2 1.1-.6 1.5-.6 1-1.4 2-2.4 2.7-.3.4-.9.4-1.2.1 0 0 0 0-.1-.1-.3-.4-.1-.8.2-1.1 1.1-1 2-2.3 2.7-3.7.1-.3.5-.5.8-.3C102.3 113.3 102.5 113.6 102.5 114zM110.7 128.7c-1.6 1.5-3.8 2.3-6 1.9.4-2.3.4-2.3 2.3-1.9C108.3 128.8 109.5 128.8 110.7 128.7zM219.3 226.7c-.8.7-.3 1.6-.4 2.4s.3 1.7-.4 2.4l-.2-5.9c0-.4.2-.6.6-.5C219 225.7 219.4 226.2 219.3 226.7z"/><path fill="#a5b2c3" d="M218.8,225.3l-0.6,0.5c-0.6-0.8-0.3-1.8-0.3-2.7C218.4,223.7,218.7,224.4,218.8,225.3z"/><path fill="#38a1fc" d="M199.9,158.1c-0.3-0.5-0.3-1.2-0.1-1.7c0.3-2-0.3-2.5-2.3-2.1c-0.9,0.2-1.8,0.4-2.6,0.6
			c-0.8,0.2-1.6,0.1-2.4-0.3c-0.3-0.6,0.3-0.9,0.6-1.1c5.1-4.3,8.5-9.9,11.5-15.7c4.3-8.1,9.2-15.8,16-22.1c4-3.9,9.2-6.4,14.8-7
			c7.5-0.8,15.1,0.8,21.7,4.5c6.6,3.9,12.5,9,17.2,15.1c1.2,1.3,1.8,2.9,1.8,4.7c-0.1,2-0.9,3.1-2.8,3.5c-1.2,0.3-2.4,0.4-3.6,0.3
			c-14.8-0.5-29.2,1.3-42.3,8.9c-4.1,2.4-8.3,4.5-12.5,6.7c-2.8,1.5-5.7,2.8-8.8,3.8C204.2,156.9,202.1,157.5,199.9,158.1z"/><path fill="#fff" d="M80.3,160l-7.1,11.1c-0.4,0.6-0.7,1.1-1.1,1.6c-0.6,0.7-0.6,1.8-0.1,2.5c0.1,0.2,0.3,0.4,0.4,0.6
			c3.2,5.5,3.6,12.3,1,18.1c-3.8,9-10.2,15.7-18.2,21c-3.7,2.5-7.9,4.3-12.3,5.3c-7.9,1.9-16.3,0.2-22.9-4.6
			c-7.4-5.2-12.1-12.3-14.9-20.7c-2.4-6.8-3.6-14-3.4-21.2c0.2-6.6,1.7-13,4.5-18.9C10,147,16.6,142.5,25,141
			c13.9-2.5,26.1,1.1,35.7,11.8c1.5,1.7,3,3.4,4.5,5.2c0.6,0.7,1.4,1.2,2.4,1.3C71.8,160,76.1,160.2,80.3,160z"/><path fill="#fefefe" d="M138.4,116.7c0.6-7.7-0.5-9.8-5.9-10.3c0.2-2.5,1.3-4.9,3.1-6.7c1.4-1.5,3.8-1.6,5.3-0.1
			c0.1,0.1,0.3,0.3,0.4,0.4c3.5,3.8,2.8,12.9-1.3,16.1C139.5,116.4,139,116.7,138.4,116.7z"/><path fill="#010203" d="M78.6,455.6c0.9-1.3,1.5-2.3,2.2-3.2c4-5.1,9.3-5.2,13.7-2.8c2.1,1.1,3.5,3.1,3.7,5.4c0.2,2,0,4.1-0.4,6.1
			c-0.1,0.6-0.3,1.4-1.2,1.2s-1-0.8-0.9-1.5c0.1-0.9,0.3-1.8,0.4-2.7c0.3-2.9-0.1-5.4-3-6.8s-5.9-1.7-8.7,0.4
			c-1.8,1.5-3.2,3.3-4.1,5.4c-0.4,0.8-0.5,1.8-1.9,1.3c-1-0.4-2.2-0.5-2-2.2c0.2-2,0.1-4.1-0.2-6.1c-0.5-3.2-3.5-5.4-6.7-4.9
			c0,0,0,0,0,0c-0.7,0.1-1.4,0.4-1.6-0.5s0.6-1.2,1.3-1.5c0.7-0.3,1.5-0.3,2.2-0.1c4.3,1.1,6.6,3.2,7,7.1
			C78.5,451.9,78.4,453.6,78.6,455.6z"/><path fill="#010304" d="M191.7,456.8c-0.9-0.8-0.4-1.8-0.4-2.7c-0.1-1.9,0.5-3.9-0.5-5.7l0,0c-0.4-0.6-0.9-1.1-1.4-1.5l0,0
			c-0.5-0.3-1.1-0.3-1.7,0h-0.2l-0.2,0.1c-0.3,0.3-0.7,0.2-1,0.4l0,0c-0.2,0.3-0.7,0.2-1,0.5l0,0c-0.2,0.2-0.4,0.3-0.6,0.5l0,0
			c-0.1,0.2-0.3,0.4-0.6,0.5l0,0c-0.1,0.2-0.3,0.4-0.5,0.5l0,0c-0.1,0.2-0.3,0.4-0.5,0.5l0,0c-0.3,0.3-0.2,0.8-0.6,0.9l0.1-0.1
			c0,0.3-0.2,0.4-0.4,0.6l0,0c-0.3,0.3-0.2,0.7-0.5,1l0,0c-0.3,0.3-0.2,0.8-0.5,1l0,0c-0.2,0.3-0.2,0.8-0.5,1l0,0
			c-0.4,0.4,0,1.1-0.5,1.5l0,0c-0.3,0.5-0.3,1.2-1,1.5c-1.1-0.1-1.4-0.8-1.1-1.7c1.1-3.9,2.8-7.4,6.3-9.8c0.7-0.4,1.4-0.7,2.2-1
			c3.1-0.9,5.5,0.4,6.3,3.6c0.3,1.1,0.3,2.2,0.5,3.4c-0.5,0.8-0.2,1.7-0.5,2.6C192.6,455.1,193.7,456.9,191.7,456.8z"/><path fill="#4b8de1" d="M187.4 451c-.8-.2-1.6-.2-2.4 0C185.8 450 186.6 450.1 187.4 451zM189.4 446.9c1 .1 1.3.7 1.4 1.5C190.2 448.1 189.6 447.6 189.4 446.9zM179.5 457.2c.3-.5.6-1 1-1.5C180.6 456.4 180.6 457.2 179.5 457.2zM180.5 455.7c-.1-.6.1-1.1.5-1.5C181 454.8 181.1 455.4 180.5 455.7zM187.9 455.8c-.1-.6.1-1.2.4-1.6C188.4 454.7 188.5 455.3 187.9 455.8zM187.8 446.9c.5-.4 1.2-.4 1.7 0H187.8z"/><path fill="#4b8de1" d="M187.4 457.2c-.1-.5.1-1.1.5-1.5C187.9 456.3 188 456.9 187.4 457.2zM182.9 450.8c0-.4.3-.8.6-.9C183.5 450.3 183.4 450.7 182.9 450.8zM186.4 447.4c.2-.3.6-.5 1-.4C187.2 447.3 186.8 447.5 186.4 447.4zM182 452.3c0-.4.2-.8.5-1C182.6 451.7 182.4 452.1 182 452.3zM184.6 451.4c-.1.4-.3.7-.6.9C184 451.9 184.1 451.5 184.6 451.4zM188.3 452.5c-.3-.3-.5-.7-.6-1.1C188.3 451.6 188.4 452 188.3 452.5zM181.5 453.3c0-.4.2-.8.5-1C182 452.7 181.9 453.1 181.5 453.3zM184 452.3c0 .4-.1.8-.4 1C183.5 452.9 183.6 452.5 184 452.3zM188.4 453.8v-1C188.9 453.1 188.9 453.5 188.4 453.8zM181 454.3c0-.4.1-.8.5-1C181.6 453.7 181.4 454.1 181 454.3z"/><path fill="#4b8de1" d="M185.5 447.9c.2-.4.6-.6 1-.5C186.3 447.7 185.9 448 185.5 447.9zM182.5 451.3c0-.3.1-.5.4-.6C182.9 451 182.8 451.2 182.5 451.3zM183.5 449.9c0-.3.2-.5.5-.5C183.9 449.6 183.7 449.8 183.5 449.9zM183.9 449.3c0-.3.3-.5.5-.5C184.4 449.1 184.2 449.3 183.9 449.3zM184.4 448.8c.1-.3.3-.5.6-.5C184.9 448.6 184.7 448.8 184.4 448.8zM187.8 451.5c-.3 0-.5-.3-.5-.5C187.6 451 187.8 451.2 187.8 451.5zM185.1 450.9c-.1.3-.3.5-.6.5C184.6 451.2 184.8 450.9 185.1 450.9z"/><path fill="#4b8de1" d="M184.9,448.4c0.1-0.3,0.3-0.5,0.6-0.5L184.9,448.4z"/><path fill="#020406" d="M191.7,456.8c1.4-0.3,0.8-1.9,1.6-2.5c0.1,0.6,0,1.2-0.1,1.8C193,456.8,192.6,457.5,191.7,456.8z"/><path fill="#fff" d="M169.8,132.5c-4.2,4.1-9.2,4.9-14.4,2.3c1.6-1.8,3.1-3.6,2.5-6.4C162,129.5,166,130.8,169.8,132.5z"/><path fill="#050408" d="M314.4,404.2c-0.8,1.2-1.6,2.3-2.4,3.5c-3.8,4.1-8.6,7.1-13.9,8.8c-0.9,0.2-1.5,1.1-1.3,2c0,0,0,0,0,0
			c0,1.9,0,3.8,0,5.6c0,0.6,0,1.1,0,1.7c0,0.6-0.5,1.1-1.1,1.1c0,0,0,0,0,0c-0.6,0-1.1-0.4-1.2-1c-0.1-0.6-0.2-1.1-0.2-1.7
			c0-1.5,0-3.1,0-4.6c0-2,0-2-2-1.9c-3.8,0.3-7.7-0.4-11.2-1.9c-0.8-0.3-1.5-0.7-2.1-1.3c-0.7-0.7-0.8-1.8-0.1-2.5
			c0.1-0.1,0.2-0.2,0.3-0.3c0.9-0.8,2-0.7,2.3,0.5c0.3,1,0.9,1.3,1.6,1.5c3.1,1.2,6.4,1.6,9.6,1.3c1-0.1,1.6-0.4,1.7-1.6
			c0.3-6.3,0.9-12.5,0.9-18.8c0.1-0.5,0-1.1-0.3-1.5c-2,0.4-3.9,0.9-5.8,1.6c-2.2,0.7-4.4,1.2-6.7,1.3c-3.2,0.2-6-2.2-6.2-5.4
			c0-0.2,0-0.4,0-0.7c0-2.1,0.7-4.2,2-6c3.2-4.8,7.9-8.4,13.4-10.1c2.7-0.9,2.7-0.9,2.5-3.9c-0.1-1.5-0.2-3.1-0.3-4.6
			c-0.1-0.6,0.3-1.1,0.8-1.2c0,0,0.1,0,0.1,0c0.6-0.1,1.2,0.3,1.3,0.8c0.2,0.8,0.3,1.6,0.3,2.4c0.1,1.6-0.4,3.6,0.6,4.8
			s2.9,0.1,4.5,0.2c1.7,0,3.4,0.2,5.1,0.6c0.5,0.2,1.1,0.4,1.6,0.6c0.7,0.3,1.3,0.9,0.9,1.7s-1.1,0.8-1.9,0.4
			c-2.8-1.2-5.8-1-8.7-0.8c-1.1,0.1-1.6,0.4-1.5,1.6c0.5,4.1,0.7,8.1,0.8,12.2c0,0.3,0.1,0.5,0.2,0.8c1.7-0.3,3.4-0.4,5.1-0.5
			C312,388.3,317.7,396.8,314.4,404.2z"/><path fill="#030405" d="M137,225.7c1.4-0.7,2.8-1.7,4.4-1.9c0.6-0.1,1.3-0.1,1.9-0.1c0.9,0.1,1.4,1,1.3,1.8c-0.1,0.4-0.3,0.7-0.6,1
			c-0.7,0.5-1.4,0.8-2.3,0.9c-1.6,0.2-3.2,0.6-4.7,1.2c-0.4,0.1-0.8,0.2-1.2,0.3c-0.4,0.1-0.8-0.1-1-0.5c-0.2-0.4-0.1-0.8,0.2-1.1
			C135.8,226.7,136.4,226.2,137,225.7z"/><path fill="#030406" d="M145.4,239.9c1.6-1.3,3.5-2.4,5.5-3.1c0.9-0.4,1.6-0.3,2.1,0.5c0.4,0.8,0.2,1.7-0.5,2.2
			c-0.6,0.5-1.2,0.8-1.9,1c-1.1,0.4-2.4,0.5-3.4,1.4c-0.8,0-1.2,0.7-1.9,1c-0.3,0.2-0.6,0.2-0.9,0c-0.3-0.2-0.2-0.6-0.2-0.9
			C144.3,241.1,145,240.7,145.4,239.9z"/><path fill="#020306" d="M235.3,122.5c0.6,0,0.9,0.1,1,0.4c0.2,0.5-0.1,0.8-0.5,1c-0.6,0.3-1.2,0.5-1.8,0.8c-8.1,3.6-15.2,9-21,15.7
			c-0.7,0.8-1.3,1.7-1.8,2.6c-0.3,0.4-0.5,1.2-1.2,0.8s-0.4-1.1,0-1.7c0.4-0.8,0.9-1.5,1.5-2.2c4.1-5.4,9.4-9.4,15-13.1
			c2.2-1.5,4.6-2.8,7.1-3.7C234.2,122.9,234.9,122.7,235.3,122.5z"/><path fill="#050a10" d="M231.7,132.9c0.6,0,1,0.1,1.1,0.4c0.2,0.4,0,0.8-0.4,1c0,0-0.1,0-0.1,0c-2.1,0.8-4.3,1.6-6.4,2.3
			c-0.3,0.1-0.7,0-0.9-0.3c-0.2-0.4,0-0.8,0.3-1C227.3,134.2,229.4,133.4,231.7,132.9z"/><path fill="#030303" d="M39.9,183.5c-3.8-4.5-7.7-9.1-11.5-13.7c-0.5-0.6-1.9-1.4-0.8-2.3c0.9-0.8,1.5,0.6,2,1.2
			c4.2,4.9,8.4,9.8,12.5,14.8c0.2,0.3,0.4,0.5,0.6,0.8c0.6,0.5,0.8,1.3,0.4,2c-0.4,0.6-1.2,0.3-1.8,0.2c-6.2-1.5-12.3-3.1-18.5-4.6
			c-0.2,0-0.5-0.1-0.8-0.1c-0.2,0.6,0.2,0.9,0.5,1.2c2.7,3.8,5.7,7.4,8.8,10.8c0.2,0.2,0.5,0.5,0.7,0.7c0.3,0.3,0.4,0.7,0.1,1.1
			c-0.3,0.4-0.8,0.4-1.1,0.1c-0.1,0-0.1-0.1-0.1-0.1c-1.1-1-2.1-2.1-3-3.2c-2.7-3.5-5.4-6.9-8-10.5c-0.5-0.6-1.8-1.1-1.3-2.1
			c0.7-1.2,1.8-0.2,2.6,0c6,1.4,12,3,18,4.4C39.9,184.3,40,184.1,39.9,183.5z"/><path fill="#050505" d="M45.4,177.7c-4.4-0.1-9.5-4.3-10.5-8.6c-0.9-4,1.4-6.6,5.5-6.2c4.3,0.4,9,4.4,10,8.6
			C51.3,175.2,49.2,177.8,45.4,177.7z"/><path fill="#8d8d8d" d="M39.9,183.5c0.5,0.1,0.8,0.6,0.6,0.8c-0.4,0.4-0.9,0.2-1.2-0.2C39.5,184,39.8,183.9,39.9,183.5z"/><path fill="#ffd574" d="M396 413.2c0-1.9 0-3.8 0-5.6 0-.7.2-1.3 1.1-1.3 2.7-.4 5.4-.2 8 .4 2.1.5 3.6 2.2 3.9 4.2.4 2.5.1 4.7-2.1 6.4-3 2.3-6.4 2.6-10 2.7-1 0-1-.6-1-1.3L396 413.2 396 413.2zM393.7 392c.2.9.2 1.8 0 2.6-.1 2.8-.2 5.5-.3 8.3 0 1-.3 1.5-1.2 1.8-1.9.5-3.7 1.3-5.6 1.8-3 .8-4.8-.9-4.4-3.9C383 397.4 388.3 392.5 393.7 392zM297 414c-.4-1.8.1-3.3.2-4.8.2-5.1.7-10.3.5-15.4 0-1.2.4-1.7 1.6-1.9 2.4-.5 4.9-.5 7.3 0 4.3 1.1 6.9 5.4 5.8 9.7-.2.8-.5 1.5-.9 2.2-1.5 2.4-3.5 4.4-5.8 5.9C303.1 411.6 300.2 413.1 297 414zM294.1 375.7c.4 1 .5 2 .5 3 .2 3.3.3 6.5.5 9.8 0 .9 0 1.7-1.2 2-3.2.8-6.4 2-9.7 2.7-1.7.3-3.5.6-4.7-1s-.9-3.4-.1-5.1c1.1-2.4 2.8-4.5 4.8-6.1C287.1 378.5 290.5 376.7 294.1 375.7z"/><path fill="#fefefe" d="M39.6,164.5c3.9-0.1,8.8,4.3,9.3,8.1c0.3,1.6-0.8,3.1-2.3,3.3c-0.1,0-0.1,0-0.2,0c-0.5,0.1-1,0.1-1.5,0
			c-3.9-0.7-7.2-3.6-8.4-7.4C36,166.2,37.2,164.6,39.6,164.5z"/><path fill="#ffd574" d="M366.4,346.5c-0.2-0.4-0.7-0.5-1-0.6c-3-0.8-6-1.4-9.1-1.9c-13.5-2.6-26.1-7.3-36.6-16.6
			c-0.1,0-0.1-0.1-0.2-0.1c-0.7-0.8-1.3-0.7-2.1-0.2c-2.1,1.4-4.4,2.5-6.9,3.2c-8.6,2.7-17.6,4-26.6,3.8c-1-0.1-1.9,0.4-2.3,1.4
			c-1.8,3.3-4,6.4-6.6,9.1c-4.5,5-9.9,9-15.2,13.1c-10,8-19,16.9-26.1,27.7c-4.8,7.3-9,14.8-11.4,23.2c-2.1,7.1-3.5,14.4-2.1,21.8
			c4.6,24.5,19.7,39.6,43,47c5.3,1.7,10.8,1.4,16.3,1.4c8.1,0.2,16.2-1.4,23.6-4.6c2.8-1.4,5.7-2.5,8.7-3.3c0.4-0.1,0.6-0.4,0.6-0.7
			c-1.3-1.8-2.5-3.6-3.6-5.5c-1.1-2-2.1-4-3-6.2c-3.9-9.8-4.1-19.7-1.7-29.8c1.7-7.1,4.5-14,8.2-20.4c0.1-0.5,2.6-3.8,2.8-4.1
			c0.3-0.8,0.8-1.6,1.4-2.3c2.6-3.9,5.9-7.2,8.9-10.8c6.2-7.4,12.9-14.3,20.1-20.7c7.5-6.8,14.3-14.4,20.1-22.7
			C366.1,347.4,366.6,347,366.4,346.5z"/><path fill="#010100" d="M399.4 390.8c.6 1 1.1 1.7 1.5 2.4.9 1.5 1.3 3.2 1.2 4.9-.1 1.2.4 1.6 1.5 1.7 3 .3 6 .7 9 1.1 1 .1 2.3 0 2.4 1.5.1.9-.9 1.3-2.8 1-3.1-.4-6.2-.7-9.3-1.1-1-.3-2.1.2-2.6 1.1-1.9 2.7-4.5 4.8-7.6 6-4.5 2.1-9.5 2.9-14.4 2.4 0 .9.7 1.4 1.2 1.9 3.6 4.3 7.4 8.5 10.7 13.1.8 1.1 1.6 2.3 2.2 3.5.4.6.3 1.4-.3 1.8 0 0-.1.1-.1.1-.8.5-1.4 0-1.8-.7-4.6-7.3-10.5-13.6-16.2-20.1-.2-.3-.4-.5-.6-.8-.4-.5-.4-1.1-.2-1.6.3-.5.9-.8 1.5-.6.6.1 1.1.3 1.7.4 6.2 1.3 12.6.1 17.9-3.3 1.4-.8 2.7-1.9 3.6-3.2-.4-.9-1.2-.6-1.7-.7-5.1-.3-10.1-.6-15.2-.9-.9 0-2 .2-2-1.1s1.2-1.2 2-1.2c2.5 0 5.1.2 7.6.3 3.1.2 6.2.3 9.3.6 1.2.1 1.6-.4 1.6-1.5 0-3.4-3.4-7.5-7.1-8-5.3-.7-10.6-1.2-15.9-1.7-3.5-.3-7-.4-10.6-.5-.5 0-1-.1-1.5-.2-.6 0-1-.4-1-1s.4-1 1-1c.6-.1 1.3-.2 1.9-.2 14.1.1 28 2 41.8 4.1 1.8.3 2.5.8 2.3 1.6-.5 1.4-1.6 1.1-2.7 1C405.1 391.5 402.3 391.1 399.4 390.8zM294.4 378.7c.9.6 1.6 1.1 2.3 1.6 1.4 1 2.5 2.4 3 4.1.4 1.1 1 1.3 2 1 2.9-.9 5.8-1.7 8.8-2.5 1-.3 2.1-.9 2.8.5.4.8-.4 1.5-2.2 2-3 .9-6 1.8-9 2.5-1.1.1-1.9 1-2 2-.7 3.2-2.3 6.2-4.7 8.5-3.4 3.7-7.6 6.3-12.4 7.8.4.8 1.2 1 1.8 1.3 5 2.6 10.1 5 15 8 1.2.7 2.3 1.5 3.4 2.4.6.4.8 1.2.5 1.8 0 0-.1.1-.1.1-.6.8-1.3.5-2 0-7.1-5-15-8.5-22.7-12.3-.3-.1-.6-.3-.9-.4-.5-.3-.8-.8-.8-1.4.1-.6.5-1.1 1.1-1.2.5-.2 1.1-.2 1.7-.3 6.2-1.2 11.7-4.8 15.3-10 1-1.3 1.7-2.8 2-4.4-.7-.7-1.3-.1-1.9.1-4.8 1.6-9.6 3.3-14.4 5-.8.3-1.8 1-2.3-.3s.6-1.6 1.4-1.9c2.4-1 4.8-1.8 7.1-2.7 2.9-1 5.9-2.1 8.8-3.1 1.2-.4 1.3-1 .9-2-1.3-3.2-6.1-5.6-9.7-4.7-5.1 1.4-10.2 3-15.3 4.6-3.4 1.1-6.6 2.4-10 3.6-.5.2-.9.3-1.4.4-.5.1-1.1-.2-1.2-.7-.1-.4.1-.9.5-1.1.5-.4 1.1-.7 1.7-.9 13-5.3 26.6-8.9 40.2-12.3 1.8-.5 2.7-.2 2.7.6.1 1.5-1.1 1.6-2.1 1.9C299.7 377 297 377.8 294.4 378.7z"/></svg>